<?xml version="1.0" encoding="UTF-8" standalone="no"?>
<!-- Created with Inkscape (http://www.inkscape.org/) -->

<svg
   width="96.603996mm"
   height="37.525002mm"
   viewBox="0 0 96.603996 37.525002"
   version="1.1"
   id="svg1"
   inkscape:version="1.4.2 (f4327f4, 2025-05-13)"
   sodipodi:docname="20250730.001 Technologies Logo.svg"
   xmlns:inkscape="http://www.inkscape.org/namespaces/inkscape"
   xmlns:sodipodi="http://sodipodi.sourceforge.net/DTD/sodipodi-0.dtd"
   xmlns="http://www.w3.org/2000/svg"
   xmlns:svg="http://www.w3.org/2000/svg">
  <sodipodi:namedview
     id="namedview1"
     pagecolor="#ffffff"
     bordercolor="#000000"
     borderopacity="0.25"
     inkscape:showpageshadow="2"
     inkscape:pageopacity="0.0"
     inkscape:pagecheckerboard="0"
     inkscape:deskcolor="#d1d1d1"
     inkscape:document-units="mm"
     inkscape:zoom="2.0510461"
     inkscape:cx="258.6485"
     inkscape:cy="112.1379"
     inkscape:window-width="1920"
     inkscape:window-height="1009"
     inkscape:window-x="-8"
     inkscape:window-y="-8"
     inkscape:window-maximized="1"
     inkscape:current-layer="layer1" />
  <defs
     id="defs1" />
  <g
     inkscape:label="Layer 1"
     inkscape:groupmode="layer"
     id="layer1">
    <g
       id="g14"
       transform="matrix(0.27046799,0,0,0.27046799,-5.6668099,-2.2124081)"
       style="display:inline;stroke-width:0.978248">
      <text
         xml:space="preserve"
         style="font-style:normal;font-variant:normal;font-weight:normal;font-stretch:normal;font-size:14.5px;line-height:1.25;font-family:'Humanst521 Lt BT';-inkscape-font-specification:'Humanst521 Lt BT, Normal';font-variant-ligatures:normal;font-variant-caps:normal;font-variant-numeric:normal;font-variant-east-asian:normal;letter-spacing:2px;word-spacing:0px;fill:#54c7f4;fill-opacity:1;stroke-width:22.1839;stroke-linecap:round"
         x="191.73398"
         y="139.34933"
         id="text12-9"><tspan
           sodipodi:role="line"
           id="tspan12-5"
           x="191.73398"
           y="139.34933"
           style="letter-spacing:2px;fill:#54c7f4;fill-opacity:1;stroke-width:22.1839">TECHNOLOGIES</tspan></text>
      <g
         id="g5"
         transform="matrix(0.9999852,0,0,0.9999852,4.194931e-4,2.3048389e-4)"
         style="stroke-width:0.978248">
        <path
           id="path31"
           clip-path="none"
           style="fill:#212734;fill-opacity:1;fill-rule:nonzero;stroke:none;stroke-width:0.987023"
           d="M 133.25502,139.38611 H 45.078192 c -9.202811,0 -16.731733,-7.52892 -16.731733,-16.73173 V 32.305239 c 0,-9.201795 7.528922,-16.730723 16.731733,-16.730723 h 88.176828 c 9.2028,0 16.73173,7.528928 16.73173,16.730723 v 90.349141 c 0,9.20281 -7.52893,16.73173 -16.73173,16.73173"
           sodipodi:nodetypes="csssssssc" />
        <path
           id="path33"
           style="fill:#54c7f4;fill-opacity:1;fill-rule:nonzero;stroke:none;stroke-width:0.987023"
           d="m 174.66772,22.090643 c 1.38027,36.910106 1.39237,73.86864 0,110.778737 -1.39137,-36.910097 -1.38128,-73.868631 0,-110.778737 m -82.594677,57.69336 c -0.03732,-0.0787 -0.0787,-0.205828 -0.150335,-0.311771 -1.055385,-1.568945 -3.990472,-1.537667 -5.035766,0.04136 -0.180607,0.272421 -0.168499,0.466147 0.06357,0.693161 0.695177,0.680048 1.386322,1.365137 2.061324,2.06536 0.303699,0.315807 0.540806,0.284529 0.830382,-0.01613 0.643718,-0.667939 1.307621,-1.317714 1.962443,-1.976571 0.124102,-0.126123 0.249215,-0.254262 0.268385,-0.495405 m 2.190572,-2.045284 c -0.01413,-0.249215 -0.176571,-0.376343 -0.308746,-0.520626 -2.367039,-2.572872 -6.475562,-2.611212 -8.975786,-0.127128 -0.515585,0.511544 -0.385425,0.796073 0.06357,1.22388 0.416704,0.397534 0.672981,0.641703 1.209751,0.08879 1.81917,-1.874665 4.475785,-1.858521 6.330274,-0.04036 0.188675,0.185653 0.358184,0.582177 0.680043,0.387446 0.408632,-0.24619 0.749666,-0.607399 1.000897,-1.012 m 2.129429,-2.149509 c -0.005,-0.158412 -0.04036,-0.214912 -0.290581,-0.487333 -1.534641,-1.676908 -3.476909,-2.606166 -5.696639,-2.828144 -3.010767,-0.299663 -5.622985,0.646754 -7.723659,2.878592 -0.133184,0.141252 -0.341034,0.298653 -0.204823,0.507508 0.254261,0.388457 0.567043,0.774893 0.982737,0.960541 0.371302,0.167489 0.552914,-0.281503 0.771861,-0.49843 2.96536,-2.92803 7.643948,-2.872536 10.525566,0.131164 0.182623,0.18969 0.34305,0.581167 0.679038,0.340024 0.385425,-0.275447 0.760759,-0.596301 0.9565,-1.003922 m -7.341309,-6.997702 h 0.722424 c 4.82085,0 8.765921,3.945066 8.765921,8.765921 0,4.821865 -3.945071,8.766931 -8.765921,8.766931 h -0.722424 c -4.82186,0 -8.765921,-3.945066 -8.765921,-8.766931 0,-4.820855 3.944061,-8.765921 8.765921,-8.765921 M 89.305499,133.71964 62.392445,107.34653 81.237696,88.233266 h 0.632571 15.979941 L 116.45505,106.8381 Z M 59.194084,104.14817 32.820974,77.235108 59.702512,50.085564 78.307347,68.690404 V 85.302921 Z M 89.293675,129.47093 112.16299,106.82628 96.594911,91.260172 H 82.502852 L 66.68056,107.31106 Z M 59.229557,99.860057 75.280441,84.037765 V 69.945701 L 59.714336,54.377626 37.069685,77.246933 Z M 81.237696,66.002447 80.792327,65.55117 62.392445,46.889184 89.305499,20.516075 116.45505,47.397612 97.850208,66.002447 Z m 1.265156,-3.026906 H 96.594911 L 112.16496,47.407461 89.293675,24.76478 66.68056,46.924657 Z m 36.640578,-12.889813 -18.60485,18.60484 v 10.112356 6.500162 l 19.11328,18.845744 26.37311,-26.91405 z"
           sodipodi:nodetypes="ccccccscccccccccccccccccccccccssssscccccccccccccccccccccccccccccccccccccccccccccc" />
        <path
           id="path35"
           clip-path="none"
           style="fill:#ffffff;fill-opacity:1;fill-rule:nonzero;stroke:none;stroke-width:0.987023"
           d="m 127.66796,77.959881 c -0.0161,1.35807 -0.31479,2.646527 -0.89294,3.872422 -0.10694,0.226009 -0.24921,0.387446 -0.50952,0.405606 -0.41267,0.03026 -0.67501,-0.368271 -0.48734,-0.756728 0.4379,-0.905041 0.72545,-1.852464 0.78801,-2.856391 0.0303,-0.475224 0.0131,-0.95549 -0.0101,-1.432734 -0.0192,-0.378364 0.12713,-0.62859 0.45,-0.671971 0.31883,-0.0434 0.55594,0.15437 0.60034,0.531724 0.0363,0.300673 0.0423,0.605383 0.0615,0.908072 m -7.73874,8.359409 c 1.15628,0.04439 1.97859,0.545853 2.71917,1.212782 0.19171,0.173541 0.18162,0.461096 0.0192,0.651791 -0.16648,0.196751 -0.48026,0.247199 -0.70123,0.09787 -0.15336,-0.101906 -0.28453,-0.236097 -0.43789,-0.336993 -0.23005,-0.150339 -0.46312,-0.303699 -0.71133,-0.41973 -0.67197,-0.314802 -1.31468,-0.240137 -1.88274,0.238113 -0.25829,0.217937 -0.48026,0.48027 -0.70324,0.736547 -0.23711,0.273432 -0.54888,0.34507 -0.80012,0.159417 -0.25325,-0.187664 -0.26637,-0.488338 -0.0262,-0.799099 0.49136,-0.638682 1.06446,-1.177468 1.85852,-1.412559 0.25325,-0.07568 0.52163,-0.100897 0.66591,-0.128139 m 3.48814,0.415594 c -0.67702,0.0091 -1.28745,-0.205828 -1.82825,-0.598321 -0.34104,-0.248205 -0.66895,-0.520626 -0.97164,-0.815243 -0.21088,-0.204824 -0.40359,-0.233076 -0.66289,-0.127133 -0.8435,0.34406 -1.59519,0.835428 -2.30651,1.394394 -0.14529,0.113005 -0.27746,0.243164 -0.41872,0.359194 -0.25728,0.210875 -0.59933,0.192715 -0.79204,-0.03832 -0.18969,-0.228025 -0.15941,-0.496415 0.1009,-0.728475 0.82937,-0.739574 1.73744,-1.363117 2.75852,-1.808073 0.23408,-0.101907 0.48632,-0.166478 0.73251,-0.239127 0.40561,-0.119057 0.76177,-0.01613 1.07657,0.257287 0.31177,0.271416 0.61547,0.554935 0.93834,0.813232 0.53576,0.427802 1.13812,0.619507 1.83128,0.485312 0.34507,-0.06659 0.61245,0.119061 0.65785,0.422761 0.0394,0.263338 -0.16447,0.504481 -0.48531,0.568048 -0.11704,0.02319 -0.23611,0.04136 -0.35516,0.05246 -0.0908,0.0091 -0.18364,0.002 -0.27545,0.002 m 7.78671,-2.232644 h 1.13611 c 0.005,0.08879 0.0161,0.176571 0.0161,0.264349 9.9e-4,0.994845 0.003,1.989685 0,2.98453 -0.004,1.313678 -0.95247,2.260091 -2.26816,2.264127 -0.98577,0.003 -1.97153,0 -2.95729,0 H 126.8463 V 88.86199 c 0.10897,0 0.20784,0 0.30571,0 0.97669,0 1.95337,0.002 2.93005,-9.95e-4 0.68509,-0.002 1.11895,-0.433853 1.12097,-1.122983 0.004,-0.966593 9.9e-4,-1.934191 9.9e-4,-2.901794 0,-0.09989 0,-0.199777 0,-0.333967 m -24.6229,0.0025 h 1.13711 v 0.310761 c 0,0.958521 -9.9e-4,1.916036 10e-4,2.874557 0.002,0.758743 0.41973,1.170401 1.18453,1.171411 0.94842,9.95e-4 1.89786,0 2.84629,0 0.0999,0 0.19978,0 0.32086,0 v 1.137107 c -0.0827,0.0061 -0.17052,0.01612 -0.25931,0.01612 -0.99484,9.96e-4 -1.98968,0.002 -2.98453,0 -1.30257,-0.004 -2.25202,-0.944396 -2.26009,-2.242936 -0.006,-1.004932 -0.002,-2.00886 -0.001,-3.012782 0,-0.08072 0.009,-0.161437 0.0151,-0.254262 m 5.49475,-20.264031 v 1.136102 c -0.11099,0 -0.20987,9.95e-4 -0.30774,0 -0.95852,0 -1.91603,-0.002 -2.87455,9.95e-4 -0.76077,0.002 -1.17242,0.415699 -1.17444,1.182514 -0.003,1.049329 -10e-4,2.097648 -10e-4,3.169173 h -1.1361 c -0.005,-0.07971 -0.0161,-0.167488 -0.0161,-0.255271 -0.001,-0.994845 -0.003,-1.989685 0,-2.98453 0.003,-1.302581 0.94238,-2.254034 2.23991,-2.264127 1.01402,-0.0071 2.02702,-0.002 3.04104,-9.95e-4 0.0716,0 0.14226,0.0101 0.22903,0.01612 m 14.77002,1.136908 v -1.138117 c 0.0948,-0.0061 0.17556,-0.01413 0.25527,-0.01413 1.00493,-9.95e-4 2.00886,-0.004 3.01278,0 1.27937,0.004 2.23689,0.95751 2.24193,2.233854 0.004,1.003927 10e-4,2.00785 10e-4,3.011772 v 0.262334 h -1.14014 c -0.004,-0.101907 -0.0131,-0.199778 -0.0131,-0.298653 0,-0.948433 9.9e-4,-1.896866 0,-2.846304 -0.001,-0.80415 -0.4046,-1.209752 -1.20068,-1.210762 -0.94944,-9.95e-4 -1.89786,0 -2.8463,0 z m -6.70392,11.361094 c -0.0938,1.881727 -0.58924,3.567712 -1.81614,4.980271 -1.19866,1.380266 -2.76861,2.061324 -4.53632,2.349889 -0.27747,0.04539 -0.53072,-0.142267 -0.57916,-0.397533 -0.0565,-0.295628 0.10595,-0.511549 0.42882,-0.601348 0.62758,-0.17556 1.27937,-0.298653 1.87164,-0.55594 1.92914,-0.836438 2.98654,-2.384193 3.39417,-4.402135 0.10897,-0.537781 0.13419,-1.094731 0.17656,-1.64462 0.0303,-0.391477 0.22501,-0.624548 0.55695,-0.611435 0.32187,0.01209 0.5055,0.241148 0.50348,0.627579 0,0.100896 0,0.202803 0,0.255272 m -1.11701,-9.818888 c 2.69698,0.0212 4.92277,0.82433 6.80348,2.52747 0.26335,0.239123 0.29664,0.532734 0.0969,0.751682 -0.20684,0.227019 -0.52972,0.231055 -0.79103,0.0111 -0.007,-0.0061 -0.0141,-0.01209 -0.0202,-0.01816 -1.76065,-1.592156 -3.84115,-2.321642 -6.1981,-2.255049 -2.02399,0.05852 -3.79776,0.798098 -5.36267,2.06839 -0.11603,0.09383 -0.26233,0.177577 -0.40661,0.204819 -0.24013,0.04643 -0.43386,-0.06256 -0.53778,-0.291592 -0.10191,-0.222983 -0.0434,-0.425786 0.13722,-0.571079 0.33699,-0.271411 0.67601,-0.543832 1.03621,-0.780939 1.64361,-1.076571 3.44563,-1.639573 5.2426,-1.64664 m 0.21181,1.729675 c 3.7574,0.09787 6.95987,2.44675 8.06671,6.34944 0.10392,0.367266 -0.0363,0.642713 -0.34709,0.722423 -0.31379,0.08072 -0.56906,-0.09989 -0.68206,-0.47825 -0.62253,-2.088565 -1.80505,-3.734195 -3.78061,-4.740138 -2.62635,-1.33789 -5.76424,-0.946413 -7.80336,0.960541 -0.99888,0.934304 -1.59922,2.100674 -1.97052,3.398208 -0.0666,0.229035 -0.16042,0.414683 -0.40258,0.47724 -0.41872,0.107958 -0.76076,-0.231056 -0.63969,-0.662894 0.82534,-2.924999 2.59911,-4.937895 5.60079,-5.723881 0.63565,-0.166478 1.3046,-0.204818 1.95841,-0.302689 m 4.63972,8.406434 c -0.0192,1.013004 -0.3935,2.129931 -0.78195,3.244843 -0.2361,0.677022 -0.45,1.362111 -0.66088,2.04821 -0.0494,0.164458 -0.0595,0.345065 -0.0646,0.518611 -0.0101,0.336993 0.14125,0.577125 0.45505,0.720403 0.37533,0.170514 0.49742,0.423766 0.35919,0.71031 -0.13319,0.276458 -0.43991,0.359194 -0.78801,0.212896 -0.76076,-0.320854 -1.19966,-1.008969 -1.06648,-1.835315 0.10494,-0.658857 0.30471,-1.30359 0.49137,-1.947313 0.29967,-1.032175 0.69619,-2.042149 0.92018,-3.089463 0.50953,-2.386208 -1.36009,-4.159977 -2.98251,-4.425336 -1.58913,-0.259303 -2.92601,0.589239 -3.3861,2.256054 -0.12411,0.450003 -0.1574,0.924217 -0.25527,1.383297 -0.38543,1.8 -1.74451,3.075338 -3.5667,3.359868 -0.11806,0.01816 -0.23611,0.04539 -0.35516,0.05045 -0.27041,0.0101 -0.49743,-0.173545 -0.53678,-0.42074 -0.0434,-0.277467 0.10797,-0.500451 0.39956,-0.570069 0.21491,-0.05045 0.43688,-0.07466 0.64876,-0.133185 1.42971,-0.394503 2.29743,-1.456951 2.44372,-2.938118 0.11301,-1.141143 0.49541,-2.183405 1.34698,-2.981504 1.20975,-1.134076 2.6435,-1.310647 4.16906,-0.805155 1.89585,0.626569 3.22164,2.499218 3.21054,4.641258 m -1.95137,-0.0423 c -0.18363,2.711099 -1.09877,5.08924 -3.21054,6.908411 -0.68509,0.590249 -1.47511,1.000896 -2.33677,1.276348 -0.14832,0.04743 -0.29765,0.09585 -0.44092,0.158407 -0.35617,0.156391 -0.40561,0.265359 -0.3148,0.645738 0.0757,0.317829 -0.0535,0.557961 -0.35011,0.64978 -0.27545,0.08576 -0.55191,-0.06054 -0.66189,-0.348096 -0.24013,-0.627579 -0.0636,-1.257173 0.48935,-1.638568 0.20886,-0.144283 0.44697,-0.268385 0.68913,-0.339014 1.85751,-0.540806 3.15605,-1.737444 4.03184,-3.421414 0.70325,-1.353023 1.09473,-2.789799 1.02612,-4.329481 -0.0232,-0.524667 -0.24114,-0.962557 -0.63767,-1.30157 -0.338,-0.289576 -0.71738,-0.456055 -1.1704,-0.280494 -0.4722,0.184639 -0.74664,0.527688 -0.79608,1.034191 -0.0494,0.513564 -0.0767,1.029149 -0.13016,1.542713 -0.18464,1.753588 -1.17141,2.957288 -2.65459,3.804824 -0.76985,0.4389 -1.59922,0.702244 -2.49317,0.729486 -0.43486,0.01314 -0.68912,-0.168499 -0.69114,-0.491369 -0.003,-0.315807 0.23206,-0.474218 0.65078,-0.515584 1.73644,-0.167489 3.07433,-0.961547 3.86335,-2.555718 0.31782,-0.642713 0.29361,-1.360091 0.35011,-2.056278 0.0212,-0.257287 0.0383,-0.515584 0.0858,-0.767825 0.17859,-0.947423 0.787,-1.513456 1.68599,-1.737444 0.95146,-0.238118 1.71323,0.161432 2.32971,0.866701 0.53879,0.616481 0.71132,1.358075 0.6861,2.166256 m -2.79959,-6.529638 c 3.09047,-0.002 5.88532,2.233854 6.49271,5.230492 0.34608,1.70516 0.0444,3.352806 -0.55392,4.959081 -0.15033,0.4046 -0.35314,0.793052 -0.46412,1.20774 -0.17456,0.651791 0.0918,1.178473 0.68912,1.498317 0.0565,0.03026 0.11603,0.0565 0.17153,0.08879 0.26838,0.151345 0.36222,0.398544 0.2482,0.64877 -0.11704,0.254256 -0.39349,0.364235 -0.675,0.267375 -1.05336,-0.36222 -1.71525,-1.475111 -1.50336,-2.565806 0.0595,-0.303699 0.16547,-0.604373 0.29159,-0.887897 0.59529,-1.340915 0.90202,-2.730269 0.86267,-4.20841 -0.0626,-2.294394 -1.95538,-4.561547 -4.33251,-5.082173 -1.53364,-0.334978 -2.97848,-0.155381 -4.21648,0.891928 -0.94137,0.796078 -1.40449,1.865583 -1.65976,3.048097 -0.10998,0.510538 -0.22903,1.029144 -0.43184,1.506388 -0.40661,0.953475 -1.20067,1.380271 -2.20863,1.439797 -0.30874,0.01816 -0.5398,-0.177577 -0.563,-0.451008 -0.0262,-0.295627 0.16345,-0.534755 0.48834,-0.552915 0.97869,-0.05549 1.30661,-0.606388 1.50437,-1.325786 0.18969,-0.691141 0.30269,-1.410539 0.55493,-2.076458 0.88386,-2.338786 2.80695,-3.634305 5.30516,-3.63632 M 56.863613,81.611554 c -9.95e-4,1.042268 0,1.024103 1.18655,1.061438 0.680043,0.0222 0.695182,-0.386436 0.690136,-0.881841 -0.01413,-1.190581 -0.005,-1.190581 -0.886887,-1.192601 -0.988789,-0.002 -0.988789,-0.002 -0.989799,1.013004 m 0.909083,-6.745968 c -1.052355,-0.005 -1.052355,-0.005 -1.056391,0.827357 -0.0071,1.145179 -0.0071,1.145179 0.936324,1.149215 1.040247,0.005 1.040247,0.005 1.045294,-0.826346 0.0061,-1.14619 0.0061,-1.14619 -0.925227,-1.150226 m 2.980494,1.97052 c 0.271416,0 0.542827,0.002 0.814238,0 0.234081,-0.002 0.362219,-0.102916 0.416703,-0.350111 0.282514,-1.267266 0.0111,-1.62444 -1.260199,-1.620409 -0.24821,9.96e-4 -0.497425,0 -0.74664,0.0091 -0.201793,0.0071 -0.319844,0.103922 -0.380379,0.312781 -0.331952,1.142154 0.02319,1.658744 1.156277,1.648656 m 0.03733,5.795515 c 0.181612,0 0.368271,-0.02827 0.542821,0.005 0.515585,0.09686 0.681058,-0.09686 0.66794,-0.616481 -0.0434,-1.647645 0.160427,-1.395404 -1.423657,-1.421636 -0.182623,-0.003 -0.364235,9.95e-4 -0.546858,0.0081 -0.164463,0.0061 -0.355158,0.03329 -0.376348,0.221973 -0.06256,0.563007 -0.191705,1.179483 0.04947,1.672872 0.149324,0.30471 0.712332,0.110984 1.086659,0.130154 m -6.250563,0.02926 c 0.292601,-0.01513 0.476234,-0.04942 0.653811,-0.02926 0.587218,0.06357 0.810201,-0.166478 0.793047,-0.771857 -0.04136,-1.411549 0.104937,-1.250116 -1.235983,-1.260204 -0.294622,-0.002 -0.590249,0.002 -0.884866,0.0081 -0.167489,0.004 -0.350112,0.04743 -0.366256,0.235092 -0.04743,0.561991 -0.191705,1.179483 0.06356,1.666815 0.152354,0.291591 0.712336,0.110984 0.976685,0.151345 m 3.132849,-2.94619 c 1.182509,0 2.365023,-0.02623 3.546526,0.0111 0.594281,0.01916 0.855604,-0.174551 0.773878,-0.777914 -0.01717,-0.133184 -0.01613,-0.274441 9.95e-4,-0.408631 0.07769,-0.608409 -0.147308,-0.848547 -0.794057,-0.828367 -1.408524,0.04235 -2.819062,0.01413 -4.229601,0.0111 -1.098767,-0.002 -1.121973,-0.0434 -1.141143,-1.167375 -0.03329,-1.975561 0.36323,-1.647646 -1.749552,-1.695068 -0.486322,-0.0111 -0.631615,0.184643 -0.623543,0.645739 0.0222,1.182514 0.02523,2.365023 -9.96e-4,3.547537 -0.0111,0.504482 0.163453,0.681053 0.669956,0.669955 1.181503,-0.02827 2.365023,-0.0091 3.547537,-0.0081 m 0.0434,3.773546 c -1.388343,0 -2.777696,0.0061 -4.166034,-0.002 -0.706279,-0.004 -0.954484,-0.229035 -0.95852,-0.93834 -0.01209,-2.504259 -0.01513,-5.008524 0.003,-7.511773 0.0061,-0.811212 0.270405,-1.045293 1.09372,-1.047314 2.709083,-0.0071 5.418166,-0.0081 8.128255,9.96e-4 0.808186,0.003 1.047313,0.253251 1.049329,1.079597 0.0061,2.458857 0.0071,4.917715 0,7.375562 -0.003,0.854599 -0.197757,1.042268 -1.052355,1.046304 -1.365137,0.0061 -2.731279,9.95e-4 -4.097421,9.95e-4 z m 7.302515,-7.750702 c 0,-3.301347 -0.01314,-6.60269 0.0111,-9.904038 0.005,-0.626569 -0.19372,-0.818274 -0.82332,-0.812222 -2.959303,0.02926 -5.919622,0.0222 -8.878925,0.004 -0.49742,-0.003 -0.868722,0.151345 -1.208746,0.499441 -1.064463,1.091705 -2.130942,2.1824 -3.227694,3.240807 -0.347085,0.334977 -0.453023,0.684083 -0.452018,1.145179 0.01209,4.371862 0.0061,8.743725 0.005,13.114582 0,0.979706 0.003,1.958407 0.003,2.937108 0,0.291591 0.0091,0.546863 0.418725,0.544842 2.088566,-0.01413 4.177132,-0.01612 6.265697,-0.02015 2.315586,-0.004 4.631166,-0.01717 6.946751,0 0.830382,0.0061 0.940361,-0.06356 0.940361,-0.913114 9.95e-4,-3.279152 9.95e-4,-6.557289 0,-9.836441 m 0.875784,9.96e-4 c -9.96e-4,3.459754 -0.002,6.919508 -9.96e-4,10.379262 0,1.08767 -0.07063,1.193612 -1.137107,1.198654 -3.221637,0.01513 -6.443274,0.003 -9.664916,0.0081 -1.429708,0.003 -2.859417,0.0111 -4.288115,0.03732 -0.989799,0.01916 -1.241035,-0.18868 -1.24204,-1.151236 -0.003,-5.531166 0.003,-11.062336 -0.0101,-16.593502 -0.002,-0.521636 0.165474,-0.90101 0.533745,-1.261209 1.254148,-1.22388 2.492156,-2.464915 3.717041,-3.719062 0.347086,-0.355158 0.72747,-0.490359 1.214803,-0.488343 3.231724,0.01209 6.463454,0.004 9.696189,0.0081 1.009979,9.95e-4 1.179483,0.174551 1.180493,1.202694 0.004,3.459755 9.96e-4,6.919509 9.96e-4,10.379263 m 25.284484,29.818368 c 0.147308,0.0525 0.388451,0.11805 0.612445,0.22197 0.984752,0.45605 1.60729,1.21884 1.869618,2.2722 0.05852,0.2361 -0.07769,0.45605 -0.310761,0.51558 -0.233071,0.0585 -0.457064,-0.0706 -0.51659,-0.30672 -0.200787,-0.79406 -0.66996,-1.36615 -1.412559,-1.71122 -0.142262,-0.0656 -0.295627,-0.10795 -0.446972,-0.15134 -0.209865,-0.0605 -0.352132,-0.25325 -0.328926,-0.46009 0.02424,-0.22096 0.209865,-0.3824 0.533745,-0.38038 m 6.25548,1.70192 c 0,0.2583 -0.149324,0.42377 -0.388451,0.45606 -0.196747,0.0262 -0.403586,-0.11906 -0.451008,-0.32489 -0.216927,-0.9333 -0.625564,-1.77478 -1.221864,-2.52343 -0.658853,-0.82635 -1.473095,-1.45797 -2.44574,-1.87063 -0.348096,-0.14832 -0.718387,-0.24821 -1.081612,-0.35919 -0.237107,-0.0716 -0.376349,-0.28453 -0.318834,-0.52063 0.05751,-0.2361 0.283519,-0.37131 0.526678,-0.31278 1.031169,0.24719 1.97052,0.6871 2.803928,1.34697 1.31973,1.04529 2.171302,2.39126 2.566816,4.02679 0.0081,0.0353 0.0091,0.0726 0.0101,0.0817 m -1.547958,9.22591 c -0.004,-0.16849 -0.05852,-0.31782 -0.177582,-0.43789 -0.108968,-0.10998 -0.223988,-0.21289 -0.338003,-0.31681 -0.988789,-0.90505 -1.976572,-1.81009 -2.96536,-2.71514 -0.19271,-0.17657 -0.408632,-0.24013 -0.667935,-0.16345 -0.693161,0.20785 -1.389353,0.40661 -2.083524,0.61244 -0.177577,0.0525 -0.330942,0.0242 -0.466142,-0.10493 -0.710316,-0.67702 -1.370178,-1.39944 -1.971525,-2.17433 -1.145179,-1.47814 -2.06536,-3.08542 -2.761547,-4.82186 -0.08375,-0.20785 -0.05751,-0.38341 0.08475,-0.55998 0.442936,-0.54686 0.875784,-1.10079 1.313679,-1.65067 0.169504,-0.21391 0.206839,-0.44193 0.109978,-0.70124 -0.51861,-1.38127 -1.031169,-2.76457 -1.545744,-4.147865 -0.103922,-0.278477 -0.441925,-0.49742 -0.798093,-0.392487 -0.518611,0.151344 -1.021077,0.340019 -1.503363,0.583182 -0.594285,0.298653 -1.14619,0.66087 -1.650672,1.09372 -0.171524,0.1463 -0.251235,0.33498 -0.223993,0.55897 0.06457,0.52769 0.113004,1.05841 0.206839,1.58105 0.124102,0.69518 0.262334,1.38936 0.433858,2.07343 0.430828,1.71727 1.077577,3.35483 1.909975,4.91772 1.019061,1.91502 2.288343,3.64843 3.80987,5.19619 0.842485,0.85863 1.747532,1.64361 2.715135,2.35796 0.97769,0.72141 2.005829,1.36211 3.086436,1.91603 0.126118,0.0646 0.263339,0.112 0.402576,0.0605 0.157401,-0.0575 0.313792,-0.12309 0.459085,-0.20482 0.912108,-0.51962 1.695068,-1.1926 2.358966,-2.00482 0.133185,-0.16244 0.268385,-0.3259 0.262334,-0.55494 m -3.178251,3.62725 c -0.26738,0.0131 -0.507513,-0.0595 -0.734532,-0.17859 -1.28341,-0.67096 -2.500223,-1.44484 -3.641367,-2.33778 -0.699217,-0.54787 -1.366147,-1.13105 -1.999777,-1.75258 -1.60527,-1.57399 -2.954262,-3.34271 -4.053029,-5.30314 -1.003923,-1.79294 -1.766707,-3.68475 -2.263117,-5.67848 -0.173545,-0.6982 -0.30471,-1.40852 -0.431838,-2.11782 -0.08778,-0.49036 -0.146303,-0.98678 -0.196751,-1.48319 -0.06256,-0.6185 0.200787,-1.08969 0.682063,-1.467037 0.762779,-0.597311 1.583074,-1.09271 2.493162,-1.429708 0.321864,-0.119056 0.648769,-0.235092 0.983747,-0.3037 0.697197,-0.144282 1.388338,0.240133 1.649661,0.897985 0.194731,0.489348 0.372312,0.985763 0.55695,1.47914 0.338009,0.90606 0.679038,1.8111 1.012,2.71816 0.206839,0.56301 0.118046,1.08061 -0.258298,1.54978 -0.3824,0.47724 -0.757738,0.95852 -1.138117,1.43576 -0.04036,0.0504 -0.04235,0.0898 -0.01816,0.14832 0.655827,1.57198 1.506389,3.02993 2.553698,4.37489 0.504486,0.64877 1.050339,1.26021 1.630496,1.84238 0.05146,0.0515 0.09383,0.0726 0.172535,0.0484 0.59529,-0.17859 1.190581,-0.35415 1.788902,-0.52265 0.565023,-0.15941 1.067489,-0.0383 1.500332,0.3592 0.592265,0.5408 1.18453,1.08262 1.77579,1.62444 0.504481,0.46311 1.013004,0.92119 1.510424,1.39238 0.559977,0.53071 0.606389,1.4065 0.124103,2.02298 -0.785986,1.00493 -1.734419,1.81816 -2.851345,2.43464 -0.26637,0.14731 -0.539797,0.26637 -0.847532,0.24619 m 6.826201,-80.913053 v 12.739239 c -0.143272,0.005 -0.287555,0.0111 -0.430827,0.01717 V 40.063555 H 80.0482 v 11.886661 c -0.173541,-0.004 -0.347086,-0.0081 -0.519616,-0.01209 V 39.198884 Z M 77.450633,53.812051 c -0.04539,0.230045 -0.09181,0.460085 -0.13722,0.690131 0.598321,0.212895 1.195632,0.605383 1.795964,0.610429 6.916482,0.04643 13.832965,0.0555 20.749448,0.004 0.630605,-0.005 1.257175,-0.496414 1.885765,-0.761774 -0.3602,-0.501456 -0.53879,-0.604373 -0.70224,-0.584192 -3.471863,0.42175 -7.032519,-0.809192 -10.496309,0.854598 -0.915134,0.43991 -2.487105,-0.717377 -3.772531,-0.770851 -3.102581,-0.130159 -6.214244,-0.04235 -9.322877,-0.04235 M 100.4178,38.259772 c -7.11828,0 -13.965144,0.003 -20.813019,-0.003 -1.088674,0 -1.146189,0.706275 -1.142153,1.529595 0.01612,3.207513 0.0091,6.414016 0.0101,9.621529 0,1.164349 0,2.328699 0,3.514239 H 100.41781 Z M 89.49066,56.030741 c -3.210539,0 -6.424104,0.07668 -9.629597,-0.04539 -0.981726,-0.03832 -2.076462,-0.43991 -2.871525,-1.017041 -0.628589,-0.457064 -1.181504,-1.395404 0.196746,-2.043163 0.352132,-0.164463 0.506503,-1.048319 0.512554,-1.60426 0.0424,-3.839128 0.09485,-7.682292 -0.01209,-11.5194 -0.05045,-1.844392 0.701233,-2.453812 2.439683,-2.441703 6.29496,0.04539 12.589915,0.05549 18.884875,0.0071 1.726344,-0.01314 2.330714,0.683074 2.293384,2.378142 -0.0827,3.774551 -0.0525,7.554149 -0.0141,11.330721 0.008,0.778924 -0.40258,1.845402 0.9787,2.093612 0.14126,0.02523 0.33599,1.127015 0.17456,1.235983 -0.92624,0.621528 -1.92915,1.487224 -2.948207,1.545744 -3.325564,0.192711 -6.668278,0.07163 -10.00494,0.07163 z" />
        <g
           id="g4"
           transform="matrix(0.84111317,0,0,0.84111317,30.480139,-9.4565285)"
           style="stroke-width:0.978248">
          <g
             id="g56"
             style="display:inline;stroke-width:0.978248"
             transform="matrix(1.8761745,0,0,1.8761745,19.916437,-15.035699)">
            <g
               id="g55"
               transform="matrix(0.93154575,0,0,0.93154575,14.033122,12.164842)"
               style="stroke-width:0.978248">
              <path
                 id="path53"
                 style="fill:#212734;fill-opacity:1;fill-rule:nonzero;stroke:none;stroke-width:0.978248"
                 transform="matrix(0.48483616,0,0,-0.48483616,116.43334,33.680157)"
                 d="M 39.221108,-81.107645 26.572182,-106.77171 h 2.581054 l 3.270997,6.65186 h 16.539551 l 3.307618,-6.65186 h 2.652832 l -12.940431,25.664065 z m -107.556158,-0.0015 v -25.662595 h 2.509278 v 11.45068 h 11.723145 l 10.126465,-11.45068 h 3.449707 l -10.309571,11.45068 c 1.136999,0.048 2.262002,0.158126 3.375001,0.328125 1.113999,0.169 2.153118,0.605107 3.120117,1.308106 0.605999,0.459999 1.083082,0.956747 1.434082,1.489746 0.352,0.533 0.611762,1.053989 0.780762,1.562988 0.17,0.509 0.27866,0.98097 0.32666,1.417969 0.048,0.436 0.07324,0.787688 0.07324,1.054688 0,0.17 -0.01309,0.405985 -0.03809,0.708984 -0.024,0.302 -0.07202,0.634024 -0.145019,0.999024 -0.072,0.362999 -0.181661,0.745043 -0.32666,1.144043 -0.146,0.400999 -0.352165,0.80675 -0.618165,1.21875 -0.459999,0.677999 -0.975945,1.218188 -1.543945,1.617187 -0.570999,0.4 -1.13343,0.695626 -1.69043,0.890625 -0.556999,0.194 -1.07241,0.314282 -1.54541,0.363282 -0.471999,0.048 -0.841422,0.07324 -1.107422,0.07324 -0.315,0.024 -0.630824,0.03516 -0.944824,0.03516 h -0.911133 z m 65.1372105,0 v -25.661125 h 2.28955087 v 22.390129 L 21.083412,-106.77024 h 2.289551 v 25.66113 h -2.289551 v -22.5 l -21.99170063,22.5 z m -31.8046895,-0.03516 v -25.625975 h 25.6259782 v 2.14453 H -32.493251 v 10.21289 h 20.390626 v 2.144531 h -20.390626 v 9.016114 h 22.063478 v 2.10791 z m -30.823243,-2.109375 h 15.313477 c 0.725999,0 1.438137,-0.03586 2.140137,-0.109864 0.700999,-0.072 1.366118,-0.313098 1.995117,-0.725097 0.436,-0.291 0.786223,-0.63711 1.053223,-1.03711 0.266,-0.399999 0.466121,-0.785621 0.599121,-1.161621 0.132,-0.375999 0.217418,-0.727688 0.253418,-1.054687 0.037,-0.327 0.0542,-0.562985 0.0542,-0.708985 0,-0.581999 -0.07226,-1.091367 -0.218262,-1.526367 -0.144999,-0.437 -0.265816,-0.752289 -0.361816,-0.946289 -0.267,-0.533 -0.599559,-0.962063 -0.997559,-1.289063 -0.398999,-0.326999 -0.834641,-0.588226 -1.30664,-0.782226 -0.471,-0.194 -0.967282,-0.326438 -1.488282,-0.398438 -0.518999,-0.074 -1.046637,-0.122484 -1.577637,-0.146484 -0.290999,-0.024 -0.581582,-0.03662 -0.871582,-0.03662 h -0.833496 -13.753418 z M 40.602456,-83.3987 47.944253,-98.083759 H 33.405678 Z" />
              <path
                 id="path55"
                 style="fill:#54c7f4;fill-opacity:1;fill-rule:nonzero;stroke:none;stroke-width:0.978248"
                 transform="matrix(0.48483616,0,0,-0.48483616,156.04529,35.709938)"
                 d="m 77.635648,-88.953354 h 13.049 c 0.533,0 1.078,0.006 1.636,0.019 0.557,0.011 1.108,0.072 1.654,0.181 0.545,0.109 1.072,0.266 1.581,0.473 0.509,0.205 0.969,0.514 1.381,0.927 0.291,0.265 0.594,0.677 0.909,1.235 0.314,0.558 0.473,1.296 0.473,2.218 0,0.145 -0.019,0.375 -0.055,0.69 -0.037,0.315 -0.115,0.666 -0.236,1.054 -0.122,0.388 -0.304,0.782 -0.546,1.182 -0.242,0.399 -0.581,0.745 -1.018,1.036 -0.605,0.411 -1.26,0.666 -1.963,0.762 -0.703,0.097 -1.405,0.159 -2.108,0.183 h -14.757 z m 14.503,12.031 c 1.139,0 2.235,-0.079 3.289,-0.236 1.055,-0.157 2.054,-0.588 2.999,-1.29 0.291,-0.242 0.546,-0.479 0.764,-0.709 0.217,-0.231 0.363,-0.406 0.435,-0.527 0.242,-0.315 0.528002,-0.831 0.855002,-1.545 0.327,-0.715 0.491,-1.618 0.491,-2.707 0,-0.268 -0.024,-0.613 -0.073,-1.037 -0.049,-0.424 -0.158,-0.89 -0.327,-1.399 -0.17,-0.509 -0.431,-1.03 -0.782002,-1.563 -0.351,-0.534 -0.83,-1.031 -1.435,-1.491 -0.486,-0.387 -1.006,-0.69 -1.564,-0.908 -0.557,-0.219 -1.127,-0.382 -1.708,-0.491 -0.582,-0.109 -1.17,-0.182 -1.762,-0.218 -0.595,-0.036 -1.182,-0.055 -1.764,-0.055 h -13.921 v -11.485996 h -2.545 v 25.661996 z M 44.3037,-88.989467 h 13.753 0.834 c 0.29,0 0.58,0.012 0.871,0.036 0.531,0.024 1.059,0.072 1.578,0.146 0.521,0.072 1.017,0.205 1.488,0.399 0.472,0.194 0.908,0.455 1.307,0.782 0.398,0.327 0.731,0.757 0.998,1.29 0.096,0.194 0.217,0.509 0.362,0.946 0.146,0.435 0.218,0.944 0.218,1.526 0,0.146 -0.018,0.382 -0.055,0.709 -0.036,0.327 -0.121,0.678 -0.253,1.054 -0.133,0.376 -0.333,0.763 -0.599,1.163 -0.267,0.4 -0.617,0.745 -1.053,1.036 -0.629,0.412 -1.294,0.654 -1.995,0.726 -0.702,0.074 -1.415,0.11 -2.141,0.11 h -15.313 z m 25.299,-13.595003 h -3.45 l -10.126,11.450003 h -11.723 v -11.450003 h -2.509 v 25.662003 h 17.738 0.91 c 0.314,0 0.63,-0.012 0.945,-0.036 0.266,0 0.636,-0.024 1.108,-0.072 0.473,-0.049 0.988,-0.17 1.545,-0.364 0.557,-0.195 1.12,-0.491 1.691,-0.891 0.568,-0.399 1.084,-0.939 1.544,-1.617 0.266,-0.412 0.472,-0.817 0.618,-1.218 0.145,-0.399 0.255,-0.781 0.327,-1.144 0.073,-0.365 0.121,-0.698 0.145,-1 0.025,-0.303 0.037,-0.539 0.037,-0.709 0,-0.267 -0.025,-0.618 -0.073,-1.054 -0.048,-0.437 -0.157,-0.909 -0.327,-1.418 -0.169,-0.509 -0.428,-1.03 -0.78,-1.563 -0.351,-0.533 -0.828,-1.03 -1.434,-1.49 -0.967,-0.703 -2.007,-1.139 -3.121,-1.308 -1.113,-0.17 -2.238,-0.28 -3.375,-0.328 z m -50.161367,24.225911 c -0.533,-0.061 -1.133,-0.171 -1.8,-0.328 -0.666,-0.159 -1.375,-0.397 -2.126,-0.713 -0.752,-0.316 -1.478,-0.73 -2.18,-1.241 -0.365,-0.269 -0.8,-0.657 -1.309,-1.169 -0.509,-0.511 -0.994,-1.145 -1.454,-1.9 -0.461,-0.754 -0.8549997,-1.636 -1.1819997,-2.647 -0.327,-1.011 -0.49,-2.161 -0.49,-3.451 0,-0.341 0.042,-0.926 0.127,-1.754 0.085,-0.828 0.321,-1.716 0.709,-2.666 0.4349997,-1.096 0.9809997,-2.027 1.6359997,-2.794 0.654,-0.767 1.363,-1.406 2.126,-1.917 0.763,-0.512 1.55,-0.914 2.363,-1.206001 0.811,-0.291 1.574,-0.511 2.289,-0.656 0.715,-0.147 1.357,-0.239 1.927,-0.275 0.569,-0.037 1.011,-0.054 1.327,-0.054 0.314,0 0.768,0.017 1.363,0.054 0.593,0.036 1.254,0.134 1.981,0.292 0.727,0.158 1.502,0.408 2.326,0.749 0.824,0.341001 1.636,0.803001 2.435,1.388001 0.994,0.754 1.776,1.582 2.345,2.483 0.569,0.901 0.993,1.778 1.273,2.63 0.278,0.852 0.447,1.631 0.508,2.337 0.06,0.706 0.091,1.267 0.091,1.681 0,0.292 -0.013,0.663 -0.036,1.114 -0.024,0.45 -0.109,1.004 -0.255,1.661 -0.097,0.365 -0.242,0.828 -0.436,1.388 -0.195,0.56 -0.485,1.163 -0.872,1.808 -0.388,0.646 -0.885,1.285 -1.491,1.917 -0.606,0.633 -1.357,1.194 -2.254,1.681 -0.315,0.17 -0.72,0.359 -1.217,0.566 -0.497,0.207 -1.073,0.401 -1.727,0.584 -0.654,0.183 -1.381,0.323 -2.181,0.42 -0.799,0.097 -1.671,0.133 -2.617,0.11 -0.266,0 -0.667,-0.03 -1.199,-0.092 m 4.38,2.073 c 1.054,-0.109 2.211,-0.37 3.472,-0.782 1.259,-0.412 2.525,-1.048 3.797,-1.908 1.273,-0.861 2.393,-2.054 3.363,-3.58 0.46,-0.728 0.83,-1.449 1.108,-2.163 0.278,-0.715 0.491,-1.388 0.637,-2.018 0.145,-0.63 0.236,-1.199 0.272,-1.708 0.036,-0.509 0.055,-0.921 0.055,-1.235 0,-0.365 -0.031,-0.855 -0.091,-1.473 -0.06,-0.618 -0.188,-1.297 -0.382,-2.035 -0.194,-0.74 -0.491,-1.527 -0.89,-2.363 -0.4,-0.836 -0.927,-1.654 -1.581,-2.454 -1.042,-1.236 -2.176,-2.211001 -3.399,-2.925001 -1.224,-0.716 -2.412,-1.242 -3.562,-1.582 -1.152,-0.339 -2.205,-0.551 -3.162,-0.636 -0.958,-0.085 -1.691,-0.127 -2.2,-0.127 -0.339,0 -0.824,0.018 -1.454,0.055 -0.631,0.036 -1.339,0.127 -2.126,0.272 -0.788,0.146 -1.624,0.369 -2.508,0.672 -0.885,0.303 -1.769,0.709 -2.654,1.218 -0.885,0.509 -1.726,1.151001 -2.5259997,1.927001 -0.8,0.775 -1.503,1.708 -2.109,2.798 -0.387,0.703 -0.696,1.387 -0.926,2.054 -0.231,0.666 -0.4,1.284 -0.509,1.854 -0.109,0.569 -0.176,1.09 -0.199,1.563 -0.025,0.473 -0.037,0.855 -0.037,1.145 0,0.484 0.054,1.193 0.164,2.127 0.108,0.932 0.405,1.98 0.89,3.143 0.606,1.43 1.406,2.672 2.399,3.727 0.9929997,1.053 2.1139997,1.92 3.3619997,2.598 1.248,0.678 2.593,1.182 4.035,1.509 1.442,0.327 2.902,0.49 4.38,0.49 0.533,0 1.327,-0.054 2.381,-0.163 M 0.54000003,-84.373275 c -0.121,0.193 -0.352,0.563 -0.69,1.108 -0.34,0.545 -0.776,1.084 -1.30900003,1.618 -0.751,0.751 -1.551,1.345 -2.398,1.781 -0.849,0.436 -1.673,0.764 -2.473,0.981 -0.799,0.219 -1.521,0.352 -2.162,0.401 -0.643,0.048 -1.121,0.072 -1.436,0.072 -0.364,0 -0.873,-0.03 -1.527,-0.091 -0.654,-0.06 -1.388,-0.206 -2.199,-0.436 -0.812,-0.231 -1.654,-0.576 -2.526,-1.036 -0.873,-0.46 -1.697,-1.09 -2.472,-1.89 -0.704,-0.727 -1.26,-1.49 -1.672,-2.29 -0.412,-0.8 -0.721,-1.563 -0.927,-2.29 -0.206,-0.727 -0.34,-1.388 -0.399,-1.981 -0.062,-0.594 -0.091,-1.06 -0.091,-1.399 0,-0.364 0.029,-0.836 0.091,-1.418 0.059,-0.582 0.199,-1.231 0.418,-1.944 0.217,-0.716 0.539,-1.461 0.962,-2.236 0.424,-0.776 1,-1.527 1.727,-2.254 0.775,-0.776 1.6,-1.387 2.472,-1.836 0.872,-0.448 1.709,-0.781005 2.507,-0.999005 0.8,-0.218 1.521,-0.351 2.164,-0.4 0.641,-0.049 1.145,-0.072 1.508,-0.072 0.436,0 1.012,0.03 1.727,0.09 0.714,0.06 1.502,0.23 2.362,0.509 0.861,0.279 1.745,0.685005 2.654,1.218005 0.909,0.532 1.787,1.273 2.63500003,2.217 0.267,0.314 0.509,0.618 0.727,0.909 0.219,0.291 0.533,0.763 0.94499997,1.417 l 2.218,-1.054 c -0.315,-0.533 -0.764,-1.217 -1.346,-2.053 -0.581,-0.836 -1.47699997,-1.704 -2.68899997,-2.599005 -0.41200003,-0.291 -0.90400003,-0.606 -1.47200003,-0.945 -0.57,-0.34 -1.236,-0.655 -2,-0.946 -0.763,-0.291 -1.636,-0.532 -2.617,-0.726 -0.982,-0.195 -2.078,-0.291 -3.289,-0.291 -1.163,0 -2.212,0.079 -3.145,0.236 -0.932,0.158 -1.762,0.363 -2.489,0.618 -0.727,0.254 -1.37,0.539 -1.927,0.854 -0.557,0.315 -1.03,0.618 -1.418,0.909 -1.744,1.309005 -3.09,2.913005 -4.034,4.816005 -0.945,1.902 -1.418,3.955 -1.418,6.161 0,0.387 0.024,0.891 0.073,1.508 0.048,0.618 0.175,1.303 0.381,2.054 0.206,0.751 0.503,1.539 0.891,2.363 0.388,0.824 0.933,1.648 1.636,2.472 0.968,1.186 2.023,2.12 3.162,2.799 1.139,0.678 2.236,1.186 3.29,1.526 1.054,0.339 2.029,0.558 2.926,0.654 0.896,0.097 1.599,0.146 2.108,0.146 0.388,0 0.957,-0.03 1.709,-0.091 0.75,-0.06 1.586,-0.218 2.508,-0.473 0.921,-0.253 1.889,-0.624 2.907,-1.108 1.019,-0.485 1.98700003,-1.151 2.90800003,-1.999 0.582,-0.533 1.07199997,-1.066 1.47299997,-1.6 0.399,-0.533 0.805,-1.126 1.218,-1.781 z" />
            </g>
          </g>
          <g
             id="g3"
             style="stroke-width:0.978248">
            <path
               id="path1"
               clip-path="none"
               style="fill:#212734;fill-opacity:1;fill-rule:nonzero;stroke:none;stroke-width:0.987023"
               d="m 191.83582,39.676984 h 0.0343 v -0.0071 h -0.0343 z m 0.034,41.749111 V 81.4251 h -0.0343 z m -0.034,-9.792034 h 0.0343 v -0.129149 h -0.0343 z M 311.11259,29.760514 c -15.33024,0 -27.67314,4.129187 -37.03232,12.382534 -2.03799,1.844765 -3.83661,3.828438 -5.42419,5.935572 -1.65289,-4.391809 -4.8707,-8.106914 -9.67635,-11.136597 -7.32409,-4.707841 -17.09101,-7.063269 -29.29951,-7.063269 h -37.80974 v 9.791631 h 37.80974 c 7.45928,0 13.49671,1.452273 18.10971,4.357092 4.47578,2.90683 6.713,6.73384 6.713,11.478 0,4.845061 -2.23722,8.768981 -6.713,11.770656 -4.613,2.90683 -10.65043,4.35856 -18.10971,4.35856 h -37.80974 v 9.790158 h 31.70715 c 6.78126,0 12.61396,1.248549 17.49635,3.743731 5.29002,2.688893 7.93676,6.145517 7.93676,10.368045 l 0.8129,16.414463 c 0,1.15123 0.88137,2.78479 2.64706,4.89655 l 0.40497,0.57494 h 15.46412 l -0.81436,-1.00798 c -1.49429,-1.62848 -2.23766,-2.92414 -2.23766,-3.88266 l -0.81438,-16.962805 c 0,-0.127213 -0.0144,-0.252958 -0.0178,-0.379837 2.2816,4.74405 5.48438,8.950882 9.62461,12.611622 9.35918,8.16053 21.70208,12.23916 37.03232,12.23916 13.96915,0 25.22991,-2.83008 33.77485,-8.49543 8.40872,-5.56547 12.61457,-13.053288 12.61457,-22.460897 H 342.0393 c -0.27444,6.431161 -3.25598,11.565897 -8.95362,15.405007 -5.56345,3.83912 -12.88741,5.75969 -21.97316,5.75969 -10.98664,0 -19.80638,-3.64667 -26.45144,-10.941497 -5.97006,-6.624871 -8.95214,-14.638145 -8.95214,-24.046759 0,-9.597303 2.91581,-17.757612 8.74966,-24.478343 6.64404,-7.486532 15.52905,-11.229706 26.65392,-11.229706 8.00212,0 14.98524,1.82259 20.95631,5.470013 5.96703,3.743268 9.29042,8.351471 9.97047,13.822091 h 15.46264 C 356.41432,50.494032 351.39936,43.53476 342.44579,37.96627 333.62641,32.49565 323.18284,29.760514 311.11257,29.760514 Z M 260.3247,72.321967 c -0.0484,0.966577 -0.0798,1.943422 -0.0798,2.938227 0,3.975608 0.40908,7.712083 1.20455,11.223788 -0.32449,-0.471297 -0.66961,-0.941396 -1.04641,-1.407035 -2.57791,-3.162111 -6.10261,-5.844967 -10.57939,-8.050574 3.9989,-1.070594 7.49229,-2.64459 10.50106,-4.704406 z"
               sodipodi:nodetypes="ccccccccccccccscccsccscscsccscccccccccccsccccscscsccccsssscccss" />
            <path
               id="path3-2"
               style="fill:#54c7f4;fill-opacity:1;fill-rule:nonzero;stroke:none;stroke-width:0.987023"
               d="m 342.67948,79.483559 v -11.03913 h 61.85383 v 11.03913 h -25.9083 V 126.48033 H 368.31637 V 79.483559 Z"
               sodipodi:nodetypes="ccccccccc" />
          </g>
        </g>
      </g>
    </g>
  </g>
</svg>
