<?xml version="1.0" encoding="UTF-8"?>
<svg version="1.1" xmlns="http://www.w3.org/2000/svg" width="1000" height="1000">
<path d="M0 0 C330 0 660 0 1000 0 C1000 330 1000 660 1000 1000 C670 1000 340 1000 0 1000 C0 670 0 340 0 0 Z " fill="#FEFEFE" transform="translate(0,0)"/>
<path d="M0 0 C3.17574563 1.74068066 4.96891017 3.1760215 6.9921875 6.2109375 C7.73199864 11.20896391 7.51021983 15.17487283 5.2421875 19.7109375 C2.9921875 22.2109375 2.9921875 22.2109375 -1.0078125 24.2109375 C-1.0078125 33.4509375 -1.0078125 42.6909375 -1.0078125 52.2109375 C0.3121875 50.5609375 1.6321875 48.9109375 2.9921875 47.2109375 C5.5078125 45.26171875 5.5078125 45.26171875 8.2421875 43.5234375 C9.58023438 42.65138672 9.58023438 42.65138672 10.9453125 41.76171875 C17.06262308 38.64816452 22.61757246 38.05645044 29.35058594 38.03491211 C37.66602 37.99791614 42.98226505 37.78860309 49.1875 31.7578125 C51.26147392 29.98012057 52.41355244 29.58208064 55.1171875 29.3984375 C60.02824521 30.42817541 63.15159919 31.99309425 65.9921875 36.2109375 C67.05402811 40.5968009 66.50413756 44.06514452 64.6796875 48.1484375 C62.66318424 50.6130526 60.97078298 52.03016675 57.79296875 52.6171875 C56.97183594 52.648125 56.15070313 52.6790625 55.3046875 52.7109375 C54.49644531 52.7625 53.68820312 52.8140625 52.85546875 52.8671875 C49.72341114 52.14933528 48.69136421 51.25516791 46.28125 49.21875 C41.62740054 45.52634914 37.84605121 45.36539814 32.0546875 45.5859375 C31.21228516 45.57949219 30.36988281 45.57304687 29.50195312 45.56640625 C23.9284707 45.66079933 19.77079323 46.83963036 14.80249023 49.35791016 C12.9921875 50.2109375 12.9921875 50.2109375 10.9921875 50.2109375 C13.71894755 55.6644576 16.55752978 60.17392289 21.9921875 63.2109375 C24.16308934 63.76043011 26.35384808 64.23484011 28.5546875 64.6484375 C33.92565798 65.70035568 36.94266 66.83196139 40.09375 71.38671875 C41.54909189 74.34169555 41.7313774 75.98538159 40.9921875 79.2109375 C38.84177878 83.08818959 36.69679413 85.74119974 32.9921875 88.2109375 C29.47369981 88.7522433 27.07591883 88.90915175 24.015625 86.9375 C19.41478536 83.05613323 19.41478536 83.05613323 17.9921875 80.2109375 C17.890275 78.79548608 17.80968794 77.37844679 17.7421875 75.9609375 C17.26147854 70.90127197 15.43566532 68.83100392 11.9921875 65.2109375 C11.9921875 64.5509375 11.9921875 63.8909375 11.9921875 63.2109375 C11.3321875 63.2109375 10.6721875 63.2109375 9.9921875 63.2109375 C8.65885417 61.54427083 7.32552083 59.87760417 5.9921875 58.2109375 C5.3321875 58.2109375 4.6721875 58.2109375 3.9921875 58.2109375 C-2.75934589 67.15671924 -1.98481724 78.52448442 -1.0078125 89.2109375 C-0.6778125 90.2009375 -0.3478125 91.1909375 -0.0078125 92.2109375 C0.6521875 92.2109375 1.3121875 92.2109375 1.9921875 92.2109375 C4.59693335 95.35195455 5.89237669 97.60098257 6.5546875 101.6484375 C5.84636272 106.13449443 4.06400474 108.91571537 0.9921875 112.2109375 C-2.74120983 114.07763616 -6.95395643 113.90570214 -11.0078125 113.2109375 C-13.88138392 111.10753499 -15.42170872 108.38314507 -17.0078125 105.2109375 C-17.61226552 99.89175093 -16.20009343 97.40650673 -13.0078125 93.2109375 C-12.20923828 92.38529297 -12.20923828 92.38529297 -11.39453125 91.54296875 C-9.37699697 88.15010124 -9.56201144 84.85627347 -9.6328125 81.0234375 C-9.64006348 80.26329346 -9.64731445 79.50314941 -9.65478516 78.7199707 C-9.83587396 71.3591047 -11.70174103 65.72246086 -15.0078125 59.2109375 C-19.2529187 59.68693339 -20.98249527 62.02309269 -23.6953125 65.1484375 C-24.48292969 66.04433594 -25.27054688 66.94023438 -26.08203125 67.86328125 C-28.63164702 70.97143354 -29.09010188 72.60985696 -29.3203125 76.5234375 C-29.75799681 80.84470166 -30.82381329 83.12058533 -34.0078125 86.2109375 C-37.76237817 88.71398128 -39.55527184 88.66373824 -44.0078125 88.2109375 C-47.43583959 86.46458408 -49.44726817 85.17915043 -51.3828125 81.8359375 C-52.51439083 77.0833085 -52.61766046 74.34351228 -50.2578125 69.9609375 C-46.97935784 65.95393736 -44.27882407 65.13907108 -39.2578125 64.5234375 C-33.35028741 63.44140927 -30.08417863 60.43793148 -26.0078125 56.2109375 C-25.0078125 55.2109375 -24.0078125 54.2109375 -23.0078125 53.2109375 C-23.68744212 50.21304856 -23.68744212 50.21304856 -25.58984375 49.04296875 C-31.68472131 46.25704398 -37.52190302 45.72845321 -44.1328125 45.5859375 C-44.97948486 45.55089111 -45.82615723 45.51584473 -46.69848633 45.47973633 C-52.70930865 45.49086857 -55.688602 47.00163692 -60.24804688 50.84423828 C-63.3406321 53.24605461 -65.99404792 53.03116528 -69.734375 52.8125 C-73.68264853 51.76776783 -74.89569427 49.61757981 -77.0078125 46.2109375 C-78.44085314 43.34485621 -78.31425405 41.39792967 -78.0078125 38.2109375 C-75.96787342 34.5531157 -74.50361988 32.54147576 -71.0078125 30.2109375 C-64.8238801 29.60268185 -62.00043128 30.2395362 -57.0078125 34.2109375 C-56.46640625 34.74203125 -55.925 35.273125 -55.3671875 35.8203125 C-51.89671577 37.86582233 -48.42574016 37.61069879 -44.5078125 37.6484375 C-32.02633292 38.07546514 -21.72078924 41.32619988 -12.26171875 49.76953125 C-11.0078125 51.2109375 -11.0078125 51.2109375 -11.0078125 53.2109375 C-10.3478125 53.2109375 -9.6878125 53.2109375 -9.0078125 53.2109375 C-9.0078125 43.6409375 -9.0078125 34.0709375 -9.0078125 24.2109375 C-10.6578125 23.5509375 -12.3078125 22.8909375 -14.0078125 22.2109375 C-16.90933019 19.85835559 -17.87775087 18.08042357 -18.4296875 14.390625 C-18.65579683 9.27804186 -18.75901573 6.24637979 -15.6953125 2.0234375 C-10.92869323 -1.19125922 -5.4206528 -2.13029546 0 0 Z " fill="#0E96BD" transform="translate(270.0078125,459.7890625)"/>
<path d="M0 0 C18.98420575 -0.83781851 37.14265977 5.98780919 51.3984375 18.46484375 C64.36038967 30.42474974 73.76287588 46.05678177 75.0859375 63.953125 C75.14380745 65.49423385 75.18461847 67.03609287 75.20703125 68.578125 C75.22926758 69.66347534 75.22926758 69.66347534 75.25195312 70.77075195 C75.18617052 74.05165937 75.06237715 75.82253425 72.76953125 78.25390625 C70.64453125 79.265625 70.64453125 79.265625 68.08203125 79.140625 C65.43260839 78.18955013 64.41039966 77.41823447 62.64453125 75.265625 C62.2049428 72.3748215 61.90874323 69.60966484 61.70703125 66.703125 C60.344537 51.81595837 53.87300383 38.14435499 42.34765625 28.3046875 C37.1675325 24.30465112 31.78563947 21.13069815 25.89453125 18.328125 C25.28101807 18.03357422 24.66750488 17.73902344 24.03540039 17.43554688 C11.99045529 11.97192733 -6.04043682 12.37302996 -18.33984375 16.8828125 C-35.19990283 24.61397949 -47.18114409 36.497422 -53.703125 53.8515625 C-55.76313196 60.54104746 -56.83895179 66.9442908 -57.08203125 73.9375 C-57.35546875 76.265625 -57.35546875 76.265625 -59.35546875 78.265625 C-65.49092692 78.93494771 -65.49092692 78.93494771 -68.29296875 76.765625 C-71.77475832 68.57317895 -68.62861414 56.21559667 -65.54101562 48.13378906 C-57.55895592 29.82250348 -45.43450614 14.2850235 -26.76953125 6.13671875 C-24.64589732 5.4251151 -22.52075303 4.83543665 -20.35546875 4.265625 C-18.83250989 3.72996361 -17.31168821 3.18819052 -15.79296875 2.640625 C-10.51210955 0.91349468 -5.50032024 0.43541534 0 0 Z " fill="#0DBFA8" transform="translate(261.35546875,398.734375)"/>
<path d="M0 0 C6.27 0 12.54 0 19 0 C20.26539143 4.42886999 21.27589725 8.06323255 21.8515625 12.50390625 C21.98046875 13.49197266 22.109375 14.48003906 22.2421875 15.49804688 C22.36851562 16.50931641 22.49484375 17.52058594 22.625 18.5625 C22.7590625 19.57763672 22.893125 20.59277344 23.03125 21.63867188 C23.64765701 26.45356544 24.18298946 31.13414394 24 36 C24.66 36 25.32 36 26 36 C25.97679687 35.35893311 25.95359375 34.71786621 25.9296875 34.05737305 C25.77752817 26.45280286 26.7027863 19.29339115 28 11.8125 C28.19078125 10.66974609 28.3815625 9.52699219 28.578125 8.34960938 C29.04415702 5.56506807 29.52095138 2.7823315 30 0 C36.6 0 43.2 0 50 0 C50 21.12 50 42.24 50 64 C46.04 64 42.08 64 38 64 C37.67 51.13 37.34 38.26 37 25 C36.09668 32.25327755 36.09668 32.25327755 35.20556641 39.50805664 C34.52240285 44.86735694 33.59055671 49.84233702 32 55 C31.77056092 56.45232574 31.57348748 57.91096456 31.4375 59.375 C31 63 31 63 30 64 C26.37 64 22.74 64 19 64 C16.69 50.8 14.38 37.6 12 24 C11.67 37.2 11.34 50.4 11 64 C7.37 64 3.74 64 0 64 C0 42.88 0 21.76 0 0 Z " fill="#131041" transform="translate(514,442)"/>
<path d="M0 0 C3.17574563 1.74068066 4.96891017 3.1760215 6.9921875 6.2109375 C7.73199864 11.20896391 7.51021983 15.17487283 5.2421875 19.7109375 C2.9921875 22.2109375 2.9921875 22.2109375 -1.0078125 24.2109375 C-1.0078125 33.4509375 -1.0078125 42.6909375 -1.0078125 52.2109375 C0.9721875 49.7359375 0.9721875 49.7359375 2.9921875 47.2109375 C5.5078125 45.26171875 5.5078125 45.26171875 8.2421875 43.5234375 C9.13421875 42.94207031 10.02625 42.36070312 10.9453125 41.76171875 C17.06262308 38.64816452 22.61757246 38.05645044 29.35058594 38.03491211 C37.66602 37.99791614 42.98226505 37.78860309 49.1875 31.7578125 C51.26147392 29.98012057 52.41355244 29.58208064 55.1171875 29.3984375 C60.02824521 30.42817541 63.15159919 31.99309425 65.9921875 36.2109375 C67.05402811 40.5968009 66.50413756 44.06514452 64.6796875 48.1484375 C62.66318424 50.6130526 60.97078298 52.03016675 57.79296875 52.6171875 C56.97183594 52.648125 56.15070313 52.6790625 55.3046875 52.7109375 C54.49644531 52.7625 53.68820312 52.8140625 52.85546875 52.8671875 C49.72341114 52.14933528 48.69136421 51.25516791 46.28125 49.21875 C41.62740054 45.52634914 37.84605121 45.36539814 32.0546875 45.5859375 C30.79108398 45.57626953 30.79108398 45.57626953 29.50195312 45.56640625 C23.9284707 45.66079933 19.77079323 46.83963036 14.80249023 49.35791016 C12.9921875 50.2109375 12.9921875 50.2109375 10.9921875 50.2109375 C13.71894755 55.6644576 16.55752978 60.17392289 21.9921875 63.2109375 C24.16308934 63.76043011 26.35384808 64.23484011 28.5546875 64.6484375 C33.92565798 65.70035568 36.94266 66.83196139 40.09375 71.38671875 C41.54909189 74.34169555 41.7313774 75.98538159 40.9921875 79.2109375 C38.84177878 83.08818959 36.69679413 85.74119974 32.9921875 88.2109375 C29.47369981 88.7522433 27.07591883 88.90915175 24.015625 86.9375 C19.41478536 83.05613323 19.41478536 83.05613323 17.9921875 80.2109375 C17.890275 78.79548608 17.80968794 77.37844679 17.7421875 75.9609375 C17.26147854 70.90127197 15.43566532 68.83100392 11.9921875 65.2109375 C11.9921875 64.5509375 11.9921875 63.8909375 11.9921875 63.2109375 C11.3321875 63.2109375 10.6721875 63.2109375 9.9921875 63.2109375 C9.3528125 62.3859375 8.7134375 61.5609375 8.0546875 60.7109375 C7.3740625 59.8859375 6.6934375 59.0609375 5.9921875 58.2109375 C5.0021875 58.2109375 4.0121875 58.2109375 2.9921875 58.2109375 C2.4971875 55.7359375 2.4971875 55.7359375 1.9921875 53.2109375 C1.0846875 53.3965625 0.1771875 53.5821875 -0.7578125 53.7734375 C-3.69095574 54.16828371 -5.2722782 54.15785322 -8.0078125 53.2109375 C-8.0505335 51.54481845 -8.04845082 49.87710865 -8.0078125 48.2109375 C-7.5128125 47.7159375 -7.5128125 47.7159375 -7.0078125 47.2109375 C-6.96002601 45.73254294 -6.97090252 44.25214358 -7.0078125 42.7734375 C-7.14171589 29.47874427 -7.14171589 29.47874427 -5.0078125 25.2109375 C-5.8740625 25.1490625 -6.7403125 25.0871875 -7.6328125 25.0234375 C-12.01415349 23.96867022 -13.76480118 22.30311109 -17.0078125 19.2109375 C-19.10459791 15.01736669 -18.56051579 9.76618441 -18.0078125 5.2109375 C-13.68546587 -0.74689164 -6.95527586 -2.73339635 0 0 Z " fill="#0B9CB8" transform="translate(270.0078125,459.7890625)"/>
<path d="M0 0 C3.87243148 2.8853411 6.69598108 5.60974982 7.5737915 10.54824829 C7.74885008 13.12985432 7.79428438 15.68197426 7.7890625 18.26953125 C7.79763275 19.21632248 7.806203 20.16311371 7.81503296 21.13859558 C7.82648659 23.13639132 7.82754429 25.13427044 7.81884766 27.13208008 C7.81253989 30.16829947 7.8594252 33.20059204 7.91015625 36.23632812 C7.9147044 38.18489096 7.91610822 40.13346418 7.9140625 42.08203125 C7.93248199 42.97920364 7.95090149 43.87637604 7.96987915 44.80073547 C7.87054459 51.66513932 5.71333398 56.2124406 1.1875 61.375 C-2.44454338 63.79636226 -4.36393835 63.70429639 -8.6875 63.75 C-9.90179687 63.77835937 -11.11609375 63.80671875 -12.3671875 63.8359375 C-17.56984479 63.13989038 -19.64694648 60.76878416 -22.92333984 56.85083008 C-25.43257238 52.23414054 -25.38978461 48.58117706 -25.34375 43.41015625 C-25.3475769 42.45862167 -25.35140381 41.5070871 -25.35534668 40.52671814 C-25.3580606 38.52048684 -25.35073596 36.51421984 -25.33398438 34.50805664 C-25.31259113 31.45052491 -25.33379163 28.39534914 -25.359375 25.33789062 C-25.35673117 23.38280735 -25.35160505 21.42772553 -25.34375 19.47265625 C-25.35184692 18.56516129 -25.35994385 17.65766632 -25.36828613 16.72267151 C-25.28106068 10.76622507 -24.24444495 7.27417352 -20.8125 2.375 C-15.41146311 -2.68847209 -6.52135302 -3.38716827 0 0 Z " fill="#282087" transform="translate(712.8125,442.625)"/>
<path d="M0 0 C23 0 23 0 29 4 C31.40275131 7.27522008 31.2986811 10.45305125 31.3125 14.4375 C31.33763672 16.10619141 31.33763672 16.10619141 31.36328125 17.80859375 C30.96488628 21.30847213 29.89496483 23.08699556 28 26 C28.23728007 29.4010144 28.569534 30.569534 31 33 C31.47890437 36.3949893 31.3703904 39.82507034 31.375 43.25 C31.39949219 44.19230469 31.42398438 45.13460937 31.44921875 46.10546875 C31.47370302 51.9245626 31.01740938 55.47527271 27 60 C22 64 22 64 0 64 C0 42.88 0 21.76 0 0 Z " fill="#181554" transform="translate(569,442)"/>
<path d="M0 0 C4.62 0 9.24 0 14 0 C15.32 6.27 16.64 12.54 18 19 C18.33 12.73 18.66 6.46 19 0 C23.29 0 27.58 0 32 0 C32 21.12 32 42.24 32 64 C27.71 64 23.42 64 19 64 C17.03336552 58.10009655 16.25688841 52.17133882 15.46484375 46.01171875 C15.1702905 43.08595998 15.1702905 43.08595998 14 41 C13.67 48.59 13.34 56.18 13 64 C8.71 64 4.42 64 0 64 C0 42.88 0 21.76 0 0 Z " fill="#3027A7" transform="translate(762,442)"/>
<path d="M0 0 C4.62 0 9.24 0 14 0 C17.29883659 8.24709146 18.28981613 16.16060803 18 25 C18.66 25 19.32 25 20 25 C20 16.75 20 8.5 20 0 C23.96 0 27.92 0 32 0 C32 21.12 32 42.24 32 64 C28.04 64 24.08 64 20 64 C17.94286001 60.91429001 17.52423988 59.26291396 16.9296875 55.67578125 C16.77226074 54.74934814 16.61483398 53.82291504 16.45263672 52.8684082 C16.2620166 51.6949585 16.07139648 50.52150879 15.875 49.3125 C15.25625 45.579375 14.6375 41.84625 14 38 C13.67 46.58 13.34 55.16 13 64 C8.71 64 4.42 64 0 64 C0 42.88 0 21.76 0 0 Z " fill="#332997" transform="translate(724,442)"/>
<path d="M0 0 C3.96 0 7.92 0 12 0 C12 7.26 12 14.52 12 22 C14.31 22 16.62 22 19 22 C19 14.74 19 7.48 19 0 C22.96 0 26.92 0 31 0 C31 21.12 31 42.24 31 64 C27.04 64 23.08 64 19 64 C19 54.43 19 44.86 19 35 C16.69 35 14.38 35 12 35 C12 44.57 12 54.14 12 64 C8.04 64 4.08 64 0 64 C0 42.88 0 21.76 0 0 Z " fill="#0A071A" transform="translate(446,442)"/>
<path d="M0 0 C4.46839081 2.26743137 8.34379793 5.14618008 10 10 C10.13997227 12.78824758 10.1888913 15.46827116 10.125 18.25 C10.11597656 18.99507813 10.10695313 19.74015625 10.09765625 20.5078125 C10.07418358 22.33868059 10.03831525 24.16938238 10 26 C5.71 26 1.42 26 -3 26 C-3.495 19.565 -3.495 19.565 -4 13 C-4.99 13 -5.98 13 -7 13 C-7.33 26.2 -7.66 39.4 -8 53 C-6.35 53 -4.7 53 -3 53 C-3 47.72 -3 42.44 -3 37 C1.62 37 6.24 37 11 37 C11.64015758 54.76437277 11.64015758 54.76437277 7 61 C3.1831527 64.77652849 0.52395492 65.61101277 -4.8125 65.6875 C-11.11420758 65.53525286 -14.2992542 64.22934426 -18.64453125 59.7265625 C-20.8514039 56.91550281 -21.13351697 55.15571322 -21.17700195 51.64550781 C-21.18983719 50.74407043 -21.20267242 49.84263306 -21.21589661 48.91387939 C-21.22328354 47.93683044 -21.23067047 46.95978149 -21.23828125 45.953125 C-21.246353 44.94916687 -21.25442474 43.94520874 -21.26274109 42.91082764 C-21.27658842 40.78236623 -21.28730766 38.65388256 -21.29516602 36.52539062 C-21.31235757 33.27691252 -21.35623592 30.02945762 -21.40039062 26.78125 C-21.41051934 24.71354915 -21.41903488 22.64583965 -21.42578125 20.578125 C-21.44328934 19.60917297 -21.46079742 18.64022095 -21.47883606 17.64190674 C-21.45999746 11.75609324 -20.86625497 8.50965799 -17 4 C-12.00713119 -0.38767259 -6.42848204 -1.01602301 0 0 Z " fill="#3D34C4" transform="translate(851,441)"/>
<path d="M0 0 C0.79913818 0.00563965 1.59827637 0.0112793 2.42163086 0.01708984 C12.78419696 0.2297957 20.00023322 3.05247289 28.25 9.3125 C29.08660156 9.92996094 29.92320312 10.54742187 30.78515625 11.18359375 C38.17917372 17.56986875 42.24522661 27.04045256 43.5625 36.57421875 C43.76177764 39.94325635 43.47321558 41.96909142 41.625 44.8125 C38.59860502 46.72390736 36.76843231 46.77142595 33.25 46.3125 C30.68994125 43.75244125 30.88498085 42.36898971 30.5 38.8125 C29.21432163 30.56437877 25.94919297 24.14211917 19.375 18.875 C11.62493523 13.71316441 4.56650493 12.27733279 -4.75 13.3125 C-12.94433509 15.08360989 -18.09672546 19.44542741 -22.75 26.3125 C-25.25296186 31.00646036 -26.79532665 35.51626182 -27.3125 40.8125 C-27.456875 41.9675 -27.60125 43.1225 -27.75 44.3125 C-31.20029042 46.61269361 -32.69554358 46.74382515 -36.75 46.3125 C-40.19296498 41.14805253 -39.44671123 35.32163437 -38.75 29.3125 C-35.05328594 17.92335889 -27.49781457 9.40509494 -17.2421875 3.50390625 C-11.37630367 0.69968279 -6.40966278 -0.04701628 0 0 Z " fill="#0EB5AB" transform="translate(262.75,430.6875)"/>
<path d="M0 0 C3.97003997 2.09577217 6.64809981 4.4978972 9.0078125 8.2734375 C9.47821771 11.23145826 9.38793745 14.10057085 9.2578125 17.0859375 C9.23976563 17.87419922 9.22171875 18.66246094 9.203125 19.47460938 C9.15625298 21.40808011 9.0845166 23.34092035 9.0078125 25.2734375 C5.0478125 25.2734375 1.0878125 25.2734375 -2.9921875 25.2734375 C-3.4871875 18.8384375 -3.4871875 18.8384375 -3.9921875 12.2734375 C-5.6421875 12.2734375 -7.2921875 12.2734375 -8.9921875 12.2734375 C-8.9921875 25.1434375 -8.9921875 38.0134375 -8.9921875 51.2734375 C-7.3421875 51.6034375 -5.6921875 51.9334375 -3.9921875 52.2734375 C-3.9921875 46.9934375 -3.9921875 41.7134375 -3.9921875 36.2734375 C0.2978125 36.2734375 4.5878125 36.2734375 9.0078125 36.2734375 C9.11626277 39.31607017 9.19533313 42.35479954 9.2578125 45.3984375 C9.29132812 46.254375 9.32484375 47.1103125 9.359375 47.9921875 C9.44560858 53.59736989 8.89799733 56.92013543 5.0078125 61.2734375 C0.30356079 64.95400653 -4.02401478 64.88635685 -9.81640625 64.76171875 C-14.50777738 64.04041323 -17.18885003 62.03422254 -19.9921875 58.2734375 C-21.69701341 55.33584488 -22.25175774 53.18583166 -22.29858398 49.79956055 C-22.31457138 48.92152267 -22.33055878 48.0434848 -22.34703064 47.13883972 C-22.35239334 46.19712418 -22.35775604 45.25540863 -22.36328125 44.28515625 C-22.37230972 43.30859573 -22.3813382 42.33203522 -22.39064026 41.32588196 C-22.40513799 39.26066144 -22.41402831 37.19539505 -22.41772461 35.13012695 C-22.42960633 31.98244084 -22.4787848 28.8367248 -22.52929688 25.68945312 C-22.5387633 23.67969704 -22.54599728 21.66992894 -22.55078125 19.66015625 C-22.57031357 18.7245134 -22.58984589 17.78887054 -22.60997009 16.82487488 C-22.56558486 10.34356397 -21.31335994 7.14350806 -16.9921875 2.2734375 C-11.89068245 -1.3208047 -5.90219085 -2.15256372 0 0 Z " fill="#221D78" transform="translate(674.9921875,441.7265625)"/>
<path d="M0 0 C3.96 0 7.92 0 12 0 C14.32654024 13.79306 15.40559032 27.01464504 15 41 C15.66 41 16.32 41 17 41 C17.04898437 39.69289063 17.09796875 38.38578125 17.1484375 37.0390625 C17.51855286 27.93439604 17.99424802 18.87173167 19 9.8125 C19.0829834 9.05340332 19.1659668 8.29430664 19.25146484 7.51220703 C19.86722399 2.26555203 19.86722399 2.26555203 21 0 C24.96 0 28.92 0 33 0 C31.64177247 21.45999502 28.53314289 42.80114264 25 64 C19.06 64 13.12 64 7 64 C6.731875 61.133125 6.46375 58.26625 6.1875 55.3125 C5.4868072 48.06902097 4.58904117 40.88231297 3.5 33.6875 C1.81452831 22.50132411 0.87203013 11.27483663 0 0 Z " fill="#0C0A10" transform="translate(409,442)"/>
<path d="M0 0 C8.58 0 17.16 0 26 0 C26 3.96 26 7.92 26 12 C22.04 12 18.08 12 14 12 C14 15.96 14 19.92 14 24 C17.96 24 21.92 24 26 24 C26 28.29 26 32.58 26 37 C21.71 37 17.42 37 13 37 C13 41.62 13 46.24 13 51 C16.1865625 50.9690625 16.1865625 50.9690625 19.4375 50.9375 C21.62499611 50.91626217 23.81360547 50.92741054 26 51 C29.07318149 54.07318149 27 59.65386506 27 64 C18.09 64 9.18 64 0 64 C0 42.88 0 21.76 0 0 Z " fill="#1F1D60" transform="translate(605,442)"/>
<path d="M0 0 C8.58 0 17.16 0 26 0 C26 3.96 26 7.92 26 12 C22.04 12 18.08 12 14 12 C14 15.96 14 19.92 14 24 C17.63 24 21.26 24 25 24 C25 28.29 25 32.58 25 37 C21.04 37 17.08 37 13 37 C13 41.62 13 46.24 13 51 C17.62 51 22.24 51 27 51 C27 55.29 27 59.58 27 64 C18.09 64 9.18 64 0 64 C0 42.88 0 21.76 0 0 Z " fill="#3832B4" transform="translate(799,442)"/>
<path d="M0 0 C8.25 0 16.5 0 25 0 C25 3.96 25 7.92 25 12 C21.04 12 17.08 12 13 12 C13 15.96 13 19.92 13 24 C16.96 24 20.92 24 25 24 C25 28.29 25 32.58 25 37 C21.04 37 17.08 37 13 37 C13 41.62 13 46.24 13 51 C17.29 51 21.58 51 26 51 C26 55.29 26 59.58 26 64 C17.42 64 8.84 64 0 64 C0 42.88 0 21.76 0 0 Z " fill="#0F102E" transform="translate(483,442)"/>
<path d="M0 0 C9.24 0 18.48 0 28 0 C28 3.96 28 7.92 28 12 C25.69 12 23.38 12 21 12 C21 29.16 21 46.32 21 64 C16.38 64 11.76 64 7 64 C7 47.17 7 30.34 7 13 C4.69 13 2.38 13 0 13 C0 8.71 0 4.42 0 0 Z " fill="#3A2FCB" transform="translate(863,442)"/>
<path d="M0 0 C3.17574563 1.74068066 4.96891017 3.1760215 6.9921875 6.2109375 C7.72395518 11.15462382 7.51464338 15.14667551 5.3046875 19.6484375 C2.9921875 22.2109375 2.9921875 22.2109375 0.3918457 23.48364258 C-2.28720096 25.01300715 -2.28720096 25.01300715 -2.66723633 28.0300293 C-2.68294678 29.14547119 -2.69865723 30.26091309 -2.71484375 31.41015625 C-2.74384766 32.61865234 -2.77285156 33.82714844 -2.80273438 35.07226562 C-2.80853516 36.33490234 -2.81433594 37.59753906 -2.8203125 38.8984375 C-2.84544922 40.17267578 -2.87058594 41.44691406 -2.89648438 42.75976562 C-2.95548626 45.91046608 -2.99167216 49.05977298 -3.0078125 52.2109375 C-3.6678125 50.8909375 -4.3278125 49.5709375 -5.0078125 48.2109375 C-5.5028125 50.6859375 -5.5028125 50.6859375 -6.0078125 53.2109375 C-6.6678125 53.2109375 -7.3278125 53.2109375 -8.0078125 53.2109375 C-8.0505335 51.54481845 -8.04845082 49.87710865 -8.0078125 48.2109375 C-7.5128125 47.7159375 -7.5128125 47.7159375 -7.0078125 47.2109375 C-6.96002601 45.73254294 -6.97090252 44.25214358 -7.0078125 42.7734375 C-7.14171589 29.47874427 -7.14171589 29.47874427 -5.0078125 25.2109375 C-5.8740625 25.1490625 -6.7403125 25.0871875 -7.6328125 25.0234375 C-12.01415349 23.96867022 -13.76480118 22.30311109 -17.0078125 19.2109375 C-19.10459791 15.01736669 -18.56051579 9.76618441 -18.0078125 5.2109375 C-13.68546587 -0.74689164 -6.95527586 -2.73339635 0 0 Z " fill="#0BA9AF" transform="translate(270.0078125,459.7890625)"/>
<path d="M0 0 C0.99 0.33 1.98 0.66 3 1 C3 64.36 3 127.72 3 193 C2.01 193 1.02 193 0 193 C0 129.31 0 65.62 0 0 Z " fill="#7CB5E4" transform="translate(363,393)"/>
<path d="M0 0 C3.26672932 0.62794581 4.29493737 1.23474607 7.0625 3.4375 C10.20925316 5.83147385 12.65652837 6.40267463 16.5625 6.875 C20.65133376 7.47199226 22.86135821 8.18276554 25.6875 11.25 C27.38348123 13.63620615 28.02214066 15.09661377 28.6875 18 C27.46250069 23.34545153 24.51692389 26.98871741 20 30 C16.48151231 30.5413058 14.08373133 30.69821425 11.0234375 28.7265625 C5.18802916 23.80368715 5.18802916 23.80368715 4.7890625 19.9765625 C4.73492187 19.20054687 4.68078125 18.42453125 4.625 17.625 C4.30638513 14.04012287 4.30638513 14.04012287 2.5 11 C0.06984595 7.7597946 0.24501404 3.95401968 0 0 Z " fill="#0C89C0" transform="translate(283,518)"/>
<path d="M0 0 C0 0.66 0 1.32 0 2 C0.66 2 1.32 2 2 2 C4.60474585 5.14101705 5.90018919 7.39004507 6.5625 11.4375 C5.85417522 15.92355693 4.07181724 18.70477787 1 22 C-2.73339733 23.86669866 -6.94614393 23.69476464 -11 23 C-13.87357142 20.89659749 -15.41389622 18.17220757 -17 15 C-17.44175071 11.11259371 -17.10828891 9.21256712 -15.3125 5.6875 C-12.74907664 2.70838637 -11.77373419 2.40797126 -8 2 C-7.67 1.34 -7.34 0.68 -7 0 C-2.52459016 -1.26229508 -2.52459016 -1.26229508 0 0 Z " fill="#0C7EC7" transform="translate(270,550)"/>
<path d="M0 0 C4.62 0 9.24 0 14 0 C14 0.66 14 1.32 14 2 C16.75641416 1.50243908 16.75641416 1.50243908 19 0 C20.47648876 -0.09823996 21.95775417 -0.12973519 23.4375 -0.125 C24.64212891 -0.12886719 24.64212891 -0.12886719 25.87109375 -0.1328125 C28 0 28 0 30 1 C30 2.32 30 3.64 30 5 C29.01 4.67 28.02 4.34 27 4 C24.66700175 3.96045766 22.33291811 3.95598268 20 4 C18.5216774 6.95664519 18.93967217 9.74229737 19 13 C21.41645782 13.16687448 21.41645782 13.16687448 24 13 C24.66 12.34 25.32 11.68 26 11 C26.99 11 27.98 11 29 11 C28.6875 12.875 28.6875 12.875 28 15 C24.51131349 17.32579101 23.10281481 17.41865457 19 17 C16.625 15.625 16.625 15.625 15 14 C15 13.34 15 12.68 15 12 C14.01 12.33 13.02 12.66 12 13 C11.34 13 10.68 13 10 13 C9.67 14.32 9.34 15.64 9 17 C5.37 17 1.74 17 -2 17 C-2.22018299 10.94496767 -1.47039847 5.88159387 0 0 Z " fill="#F6F6F7" transform="translate(688,537)"/>
<path d="M0 0 C0.66 0.66 1.32 1.32 2 2 C5.08347826 2.16681109 5.08347826 2.16681109 8 2 C9.49126892 7.96507567 9.49126892 7.96507567 8.17578125 10.73632812 C7.62470703 11.62481445 7.62470703 11.62481445 7.0625 12.53125 C4.31856207 17.7161143 4.33326804 22.73179547 4.25 28.5 C4.22035156 29.51320313 4.19070313 30.52640625 4.16015625 31.5703125 C4.09007664 34.04645883 4.04270293 36.52323027 4 39 C1.03 39.66 -1.94 40.32 -5 41 C-4.67 40.01 -4.34 39.02 -4 38 C-3.87584278 35.32051391 -3.81133663 32.67953402 -3.8125 30 C-3.80718262 28.85857544 -3.80718262 28.85857544 -3.80175781 27.6940918 C-3.83008773 23.23165684 -4.23222136 19.17871013 -5.25 14.8125 C-6.2030787 10.51711792 -6.2030787 10.51711792 -5.2421875 8.0703125 C-4.125 6.4375 -4.125 6.4375 -2 4 C-2 3.34 -2 2.68 -2 2 C-1.34 2 -0.68 2 0 2 C0 1.34 0 0.68 0 0 Z " fill="#088FBE" transform="translate(264,511)"/>
<path d="M0 0 C0.33 0 0.66 0 1 0 C1.33 8.91 1.66 17.82 2 27 C3.32 25.35 4.64 23.7 6 22 C11.97608801 17.285943 17.32177206 14.14487223 25 14 C25.33 15.32 25.66 16.64 26 18 C31.94 18.33 37.88 18.66 44 19 C44 19.33 44 19.66 44 20 C42.73285156 20.02578125 41.46570313 20.0515625 40.16015625 20.078125 C27.58971473 20.43897048 27.58971473 20.43897048 16 25 C15.34 25 14.68 25 14 25 C15.32 27.64 16.64 30.28 18 33 C17.34 33 16.68 33 16 33 C16.33 35.64 16.66 38.28 17 41 C16.34 40.67 15.68 40.34 15 40 C15 39.34 15 38.68 15 38 C14.34 38 13.68 38 13 38 C12.360625 37.175 11.72125 36.35 11.0625 35.5 C10.381875 34.675 9.70125 33.85 9 33 C8.01 33 7.02 33 6 33 C5.67 31.35 5.34 29.7 5 28 C3.02 28.33 1.04 28.66 -1 29 C-3 26 -3 26 -2.625 23.8125 C-2.41875 23.214375 -2.2125 22.61625 -2 22 C-1.67 22 -1.34 22 -1 22 C-0.67 14.74 -0.34 7.48 0 0 Z " fill="#24A3BF" transform="translate(267,485)"/>
<path d="M0 0 C0.66 0 1.32 0 2 0 C2 0.66 2 1.32 2 2 C2.66 2 3.32 2 4 2 C4 22.13 4 42.26 4 63 C3.34 62.34 2.68 61.68 2 61 C1.01 61.495 1.01 61.495 0 62 C-1.0283465 58.91496051 -1.12676813 56.79867741 -1.12939453 53.56640625 C-1.13254669 52.45515381 -1.13569885 51.34390137 -1.13894653 50.19897461 C-1.13591019 48.39891968 -1.13591019 48.39891968 -1.1328125 46.5625 C-1.13376923 45.33088135 -1.13472595 44.0992627 -1.13571167 42.83032227 C-1.13656716 39.55666344 -1.13253854 36.28305195 -1.12695312 33.00939941 C-1.12500196 31.00201913 -1.12694616 28.99468257 -1.13037109 26.98730469 C-1.13653633 23.13734904 -1.13580316 19.28745832 -1.1328125 15.4375 C-1.13483673 14.23746338 -1.13686096 13.03742676 -1.13894653 11.80102539 C-1.13579437 10.68977295 -1.13264221 9.57852051 -1.12939453 8.43359375 C-1.12859894 7.45447021 -1.12780334 6.47534668 -1.12698364 5.46655273 C-1 3 -1 3 0 0 Z " fill="#F8FBF4" transform="translate(795,443)"/>
<path d="M0 0 C1.79158489 -0.02696365 3.58328473 -0.04637917 5.375 -0.0625 C6.37273438 -0.07410156 7.37046875 -0.08570313 8.3984375 -0.09765625 C11 0 11 0 13 1 C13 2.65 13 4.3 13 6 C14.32 5.67 15.64 5.34 17 5 C17 3.35 17 1.7 17 0 C17.99 0 18.98 0 20 0 C19.85786703 1.89611434 19.71113093 3.79188394 19.5625 5.6875 C19.48128906 6.74324219 19.40007813 7.79898438 19.31640625 8.88671875 C19.03548319 11.65086297 18.59843148 14.28945741 18 17 C14.33333333 17 10.66666667 17 7 17 C6.67 15.02 6.34 13.04 6 11 C4.68 11 3.36 11 2 11 C1.34 12.98 0.68 14.96 0 17 C-0.66 17 -1.32 17 -2 17 C-1.85899143 14.72886197 -1.71203245 12.45809275 -1.5625 10.1875 C-1.48128906 8.92292969 -1.40007813 7.65835938 -1.31640625 6.35546875 C-1 3 -1 3 0 0 Z " fill="#514D83" transform="translate(533,537)"/>
<path d="M0 0 C1.32 0.33 2.64 0.66 4 1 C3.9278125 2.16917969 3.855625 3.33835937 3.78125 4.54296875 C3.68742137 6.09114107 3.59367575 7.63931842 3.5 9.1875 C3.45230469 9.95642578 3.40460938 10.72535156 3.35546875 11.51757812 C3.165091 14.68600777 2.99804225 17.81279033 3.03125 20.98828125 C3 23 3 23 2 24 C2.061875 25.03125 2.12375 26.0625 2.1875 27.125 C1.9521133 31.98965842 0.58101294 33.93294931 -2 38 C-2.33 38.99 -2.66 39.98 -3 41 C-3.99 39.02 -4.98 37.04 -6 35 C-9.39192363 35.59283621 -11.2107757 36.76743189 -13.75 39.0625 C-14.36359375 39.61035156 -14.9771875 40.15820312 -15.609375 40.72265625 C-16.29773438 41.35494141 -16.29773438 41.35494141 -17 42 C-17 40.68 -17 39.36 -17 38 C-17.721875 38.495 -18.44375 38.99 -19.1875 39.5 C-22.14848659 41.07919285 -23.71253029 41.28178312 -27 41 C-26.34 40.505 -25.68 40.01 -25 39.5 C-21.69615136 36.7467928 -18.80647634 33.74309151 -15.8671875 30.609375 C-14 29 -14 29 -11 29 C-10.67 27.35 -10.34 25.7 -10 24 C-5.48279689 23.63374029 -5.48279689 23.63374029 -3.1875 25.375 C-2 27 -2 27 -2 29 C-1.34 29 -0.68 29 0 29 C0 19.43 0 9.86 0 0 Z " fill="#1099BA" transform="translate(261,484)"/>
<path d="M0 0 C0.99 0.33 1.98 0.66 3 1 C3 37.63 3 74.26 3 112 C2.67 112 2.34 112 2 112 C1.67 99.13 1.34 86.26 1 73 C0.67 73 0.34 73 0 73 C0 48.91 0 24.82 0 0 Z " fill="#9AE0F3" transform="translate(363,393)"/>
<path d="M0 0 C1.67542976 0.28604898 3.34385343 0.61781233 5 1 C5.02464775 6.53588533 5.04283496 12.071739 5.05493164 17.60766602 C5.05997244 19.4924373 5.06680498 21.37720465 5.07543945 23.26196289 C5.08751617 25.96501636 5.09323068 28.66801831 5.09765625 31.37109375 C5.10281754 32.21900986 5.10797882 33.06692596 5.11329651 33.9405365 C5.11349195 35.96071068 5.06206211 37.98077934 5 40 C4 41 4 41 1.4375 41.0625 C0.633125 41.041875 -0.17125 41.02125 -1 41 C-1.02464705 35.32169922 -1.04283462 29.64342931 -1.05493164 23.96508789 C-1.05997256 22.03181415 -1.06680519 20.09854424 -1.07543945 18.1652832 C-1.08751565 15.39273128 -1.09323057 12.62022959 -1.09765625 9.84765625 C-1.10281754 8.97786636 -1.10797882 8.10807648 -1.11329651 7.21192932 C-1.11349185 5.14094186 -1.06208168 3.07005676 -1 1 C-0.67 0.67 -0.34 0.34 0 0 Z " fill="#F7FBF3" transform="translate(702,453)"/>
<path d="M0 0 C2.53769925 2.21025418 2.93239872 3.555763 3.4375 6.875 C2.88939233 10.79005478 1.43242523 12.9236975 -1 16 C-4.04983996 17.52491998 -6.6423369 17.23562548 -10 17 C-11.875 16 -11.875 16 -13 14 C-14.74057407 7.36406134 -14.74057407 7.36406134 -13.01171875 4.1796875 C-8.77567657 -0.99353215 -6.42797607 -1.46602963 0 0 Z " fill="#282641" transform="translate(481,537)"/>
<path d="M0 0 C2.5 1.625 2.5 1.625 4 4 C4.70462911 8.0516174 4.16404621 9.71018502 2.125 13.3125 C0 16 0 16 -2 17 C-8.36842105 17.46315789 -8.36842105 17.46315789 -10.875 15.625 C-13.17347511 12.30498039 -13.31595938 10.02848204 -13 6 C-10.0195184 -0.09643964 -6.62295284 -0.92930761 0 0 Z " fill="#362CA9" transform="translate(637,537)"/>
<path d="M0 0 C0.33 0 0.66 0 1 0 C1 2.97 1 5.94 1 9 C2.7015625 8.9690625 2.7015625 8.9690625 4.4375 8.9375 C8 9 8 9 9 10 C9.09319449 11.5348297 9.117458 13.07392082 9.11352539 14.61157227 C9.11344986 15.59251358 9.11337433 16.5734549 9.11329651 17.5841217 C9.10813522 18.6507756 9.10297394 19.7174295 9.09765625 20.81640625 C9.0962413 21.9025975 9.09482635 22.98878876 9.09336853 24.1078949 C9.08775048 27.59279075 9.07519492 31.07762342 9.0625 34.5625 C9.05748733 36.91861887 9.05292402 39.27473874 9.04882812 41.63085938 C9.03777519 47.42059464 9.02101951 53.21029281 9 59 C10.95216435 57.04783565 11.84826645 55.46800047 13 53 C13.66 53 14.32 53 15 53 C14.34 54.98 13.68 56.96 13 59 C15.31 59 17.62 59 20 59 C20 43.16 20 27.32 20 11 C20.33 11 20.66 11 21 11 C21 27.5 21 44 21 61 C16.38 61 11.76 61 7 61 C7 44.17 7 27.34 7 10 C4.69 10 2.38 10 0 10 C0 6.7 0 3.4 0 0 Z " fill="#8580D0" transform="translate(863,445)"/>
<path d="M0 0 C1.98 0 3.96 0 6 0 C6.06058594 0.63808594 6.12117188 1.27617188 6.18359375 1.93359375 C6.26738281 2.75988281 6.35117187 3.58617187 6.4375 4.4375 C6.51871094 5.26121094 6.59992188 6.08492187 6.68359375 6.93359375 C6.78930815 8.98662025 6.78930815 8.98662025 8 10 C8.27714844 9.36191406 8.55429687 8.72382812 8.83984375 8.06640625 C9.20207031 7.24011719 9.56429688 6.41382813 9.9375 5.5625 C10.29714844 4.73878906 10.65679687 3.91507813 11.02734375 3.06640625 C12 1 12 1 13 0 C14.65 0 16.3 0 18 0 C17.34 5.28 16.68 10.56 16 16 C15.01 16.33 14.02 16.66 13 17 C13 13.7 13 10.4 13 7 C11.35 10.3 9.7 13.6 8 17 C6.68 16.67 5.36 16.34 4 16 C3.67 13.36 3.34 10.72 3 8 C1.03177114 9.96822886 1.33751619 13.34808709 1 16 C0.01 16.33 -0.98 16.66 -2 17 C-1.85848172 14.9163691 -1.71162064 12.83310062 -1.5625 10.75 C-1.48128906 9.58984375 -1.40007812 8.4296875 -1.31640625 7.234375 C-1.06752213 4.69022624 -0.71885058 2.44046752 0 0 Z " fill="#1C171E" transform="translate(428,537)"/>
<path d="M0 0 C0.66 0 1.32 0 2 0 C2 4.29 2 8.58 2 13 C2.66 13 3.32 13 4 13 C4.1546875 11.700625 4.1546875 11.700625 4.3125 10.375 C5.05492844 6.73035128 5.96867361 4.11953695 8 1 C9.65 0.67 11.3 0.34 13 0 C13.33 3.96 13.66 7.92 14 12 C14.598125 10.205625 15.19625 8.41125 15.8125 6.5625 C16.83203125 3.50390625 16.83203125 3.50390625 18 1 C18.99 0.67 19.98 0.34 21 0 C20.59683075 6.31631828 18.28767869 10.64993984 15 16 C13.68 16 12.36 16 11 16 C10.67 12.7 10.34 9.4 10 6 C8.02 9.63 6.04 13.26 4 17 C2.68 17 1.36 17 0 17 C0 11.39 0 5.78 0 0 Z " fill="#18152E" transform="translate(490,537)"/>
<path d="M0 0 C0.33 0 0.66 0 1 0 C1 20.79 1 41.58 1 63 C4.63 63 8.26 63 12 63 C11.67 53.43 11.34 43.86 11 34 C12.32 34 13.64 34 15 34 C18.35358564 43.53346357 19.22866188 52.93887734 19 63 C18.67 63 18.34 63 18 63 C17.91435791 62.40461426 17.82871582 61.80922852 17.74047852 61.19580078 C17.35138747 58.50500371 16.95700999 55.81500768 16.5625 53.125 C16.42779297 52.18785156 16.29308594 51.25070312 16.15429688 50.28515625 C16.02216797 49.38925781 15.89003906 48.49335938 15.75390625 47.5703125 C15.57323608 46.32918701 15.57323608 46.32918701 15.38891602 45.06298828 C15.08743328 42.94672233 15.08743328 42.94672233 14 41 C13.67 48.59 13.34 56.18 13 64 C8.71 64 4.42 64 0 64 C0 42.88 0 21.76 0 0 Z " fill="#5F5CA3" transform="translate(762,442)"/>
<path d="M0 0 C5.94 0 11.88 0 18 0 C18 0.33 18 0.66 18 1 C13.05 1 8.1 1 3 1 C2.67 21.13 2.34 41.26 2 62 C2.99 62.33 3.98 62.66 5 63 C2.525 63.495 2.525 63.495 0 64 C0 42.88 0 21.76 0 0 Z " fill="#413B5A" transform="translate(569,442)"/>
<path d="M0 0 C2.41796875 0.08984375 2.41796875 0.08984375 5 1 C6.91665101 4.52026733 7.80496831 8.14934233 9 12 C9.66 8.04 10.32 4.08 11 0 C11.99 0 12.98 0 14 0 C13.88556397 2.0839403 13.75804453 4.16716493 13.625 6.25 C13.55539062 7.41015625 13.48578125 8.5703125 13.4140625 9.765625 C13.03751692 12.70694334 12.5225877 14.49949011 11 17 C9.68 17 8.36 17 7 17 C6.49166409 15.75336669 5.99368855 14.50250613 5.5 13.25 C5.2215625 12.55390625 4.943125 11.8578125 4.65625 11.140625 C4 9 4 9 4 5 C3.34 5 2.68 5 2 5 C1.34 8.96 0.68 12.92 0 17 C-0.99 17 -1.98 17 -3 17 C-2.69268013 14.35346869 -2.37940678 11.707885 -2.0625 9.0625 C-1.97548828 8.30775391 -1.88847656 7.55300781 -1.79882812 6.77539062 C-1.11328125 1.11328125 -1.11328125 1.11328125 0 0 Z " fill="#272060" transform="translate(560,537)"/>
<path d="M0 0 C1.051875 -0.00386719 1.051875 -0.00386719 2.125 -0.0078125 C4 0.125 4 0.125 6 1.125 C6 2.445 6 3.765 6 5.125 C5.443125 4.980625 4.88625 4.83625 4.3125 4.6875 C3.549375 4.501875 2.78625 4.31625 2 4.125 C1.13375 3.898125 0.2675 3.67125 -0.625 3.4375 C-1.800625 3.2828125 -1.800625 3.2828125 -3 3.125 C-5.29575603 5.42075603 -5.32339599 6.13342525 -5.625 9.25 C-5.810625 11.168125 -5.810625 11.168125 -6 13.125 C-3.69 13.455 -1.38 13.785 1 14.125 C1 13.135 1 12.145 1 11.125 C0.01 11.125 -0.98 11.125 -2 11.125 C-2 10.135 -2 9.145 -2 8.125 C0.31 8.125 2.62 8.125 5 8.125 C5.125 14.875 5.125 14.875 4 17.125 C2.23050905 17.23315225 0.45912513 17.31066083 -1.3125 17.375 C-2.29863281 17.42140625 -3.28476562 17.4678125 -4.30078125 17.515625 C-7 17.125 -7 17.125 -8.828125 15.32421875 C-10.56213512 12.07005976 -10.44574253 9.75461777 -10 6.125 C-7.11500862 1.70134654 -5.23331216 -0.01924012 0 0 Z " fill="#192371" transform="translate(588,536.875)"/>
<path d="M0 0 C3.3 0 6.6 0 10 0 C10 0.33 10 0.66 10 1 C9.05125 1.12375 8.1025 1.2475 7.125 1.375 C3.91332809 1.71687177 3.91332809 1.71687177 2 4 C1.70684915 5.98448529 1.70684915 5.98448529 1.76953125 8.24609375 C1.77146484 9.08333984 1.77339844 9.92058594 1.77539062 10.78320312 C1.78763672 11.65912109 1.79988281 12.53503906 1.8125 13.4375 C1.81314453 14.30955078 1.81378906 15.18160156 1.81445312 16.08007812 C1.84326223 21.11903058 1.84326223 21.11903058 3 26 C3.09295857 27.54732165 3.13068865 29.09832748 3.1328125 30.6484375 C3.13458496 31.56592773 3.13635742 32.48341797 3.13818359 33.42871094 C3.13383301 34.40098633 3.12948242 35.37326172 3.125 36.375 C3.1245166 37.36274414 3.1240332 38.35048828 3.12353516 39.36816406 C3.09261517 45.88268535 2.78594184 52.26156041 2.0234375 58.734375 C2.01570312 59.48203125 2.00796875 60.2296875 2 61 C2.66 61.66 3.32 62.32 4 63 C2.68 63 1.36 63 0 63 C0 42.21 0 21.42 0 0 Z " fill="#0D0324" transform="translate(514,442)"/>
<path d="M0 0 C-0.58353745 0.27983734 -1.16707489 0.55967468 -1.76829529 0.84799194 C-5.44303194 2.74489444 -8.48835268 4.65549895 -11 8 C-11.94693391 11.71242049 -11.81870987 15.27515457 -11.68359375 19.0859375 C-11.67368912 20.14285797 -11.66378448 21.19977844 -11.65357971 22.28872681 C-11.61450945 25.65225149 -11.52669629 29.01246809 -11.4375 32.375 C-11.40237685 34.660109 -11.37043961 36.94526934 -11.34179688 39.23046875 C-11.26477242 44.82143411 -11.14775768 50.41048073 -11 56 C-12.9092197 54.40346888 -13.902583 53.49856093 -14.38768005 51.01593018 C-14.39308304 50.26205017 -14.39848602 49.50817017 -14.40405273 48.73144531 C-14.41673691 47.87335266 -14.42942108 47.01526001 -14.44248962 46.13116455 C-14.43955399 45.2061615 -14.43661835 44.28115845 -14.43359375 43.328125 C-14.4388356 42.37234558 -14.44407745 41.41656616 -14.44947815 40.43182373 C-14.45590428 38.40768403 -14.45455373 36.38350702 -14.44604492 34.359375 C-14.43756968 31.27535554 -14.46623188 28.19320975 -14.49804688 25.109375 C-14.49965995 23.14062555 -14.49907933 21.17187284 -14.49609375 19.203125 C-14.50732773 18.28621887 -14.51856171 17.36931274 -14.53013611 16.42462158 C-14.45552226 9.49927052 -12.96219021 5.15966956 -8.125 0 C-5.15061275 -1.39971165 -3.11955967 -0.77988992 0 0 Z " fill="#413A7D" transform="translate(702,443)"/>
<path d="M0 0 C1.62463842 -0.05395478 3.24978541 -0.09277195 4.875 -0.125 C5.77992188 -0.14820313 6.68484375 -0.17140625 7.6171875 -0.1953125 C10 0 10 0 12 2 C12.375 4.4375 12.375 4.4375 12 7 C9.11139055 10.11081018 6.11345859 10.53256152 2 11 C1.67 12.98 1.34 14.96 1 17 C0.01 17 -0.98 17 -2 17 C-2.21824777 10.9981863 -1.5056904 5.80766296 0 0 Z " fill="#242130" transform="translate(452,537)"/>
<path d="M0 0 C0.66 1.32 1.32 2.64 2 4 C2.66 4 3.32 4 4 4 C4.33 2.68 4.66 1.36 5 0 C5.66 0 6.32 0 7 0 C7 7.26 7 14.52 7 22 C4.69 22 2.38 22 0 22 C0 14.74 0 7.48 0 0 Z " fill="#DCDEE0" transform="translate(458,442)"/>
<path d="M0 0 C1.65 0.33 3.3 0.66 5 1 C5.99 4.63 6.98 8.26 8 12 C8.33 12 8.66 12 9 12 C9.66 8.04 10.32 4.08 11 0 C11.99 0 12.98 0 14 0 C13.34 5.28 12.68 10.56 12 16 C10.35 16.33 8.7 16.66 7 17 C6.49166409 15.75336669 5.99368855 14.50250613 5.5 13.25 C5.2215625 12.55390625 4.943125 11.8578125 4.65625 11.140625 C4 9 4 9 4 5 C3.34 5 2.68 5 2 5 C1.34 8.96 0.68 12.92 0 17 C-0.99 17 -1.98 17 -3 17 C-2.69268013 14.35346869 -2.37940678 11.707885 -2.0625 9.0625 C-1.97548828 8.30775391 -1.88847656 7.55300781 -1.79882812 6.77539062 C-1.11328125 1.11328125 -1.11328125 1.11328125 0 0 Z " fill="#2F2895" transform="translate(668,537)"/>
<path d="M0 0 C1.875 0.125 1.875 0.125 4 1 C5.71426729 4.87965756 6.40236676 8.81656731 7 13 C7.66 13 8.32 13 9 13 C9.33 9.37 9.66 5.74 10 2 C10.99 1.67 11.98 1.34 13 1 C13.25706972 6.91260345 12.2982126 12.23918159 11 18 C8.58203125 17.63671875 8.58203125 17.63671875 6 17 C3.83210541 13.38684234 3.80741459 10.14058636 4 6 C3.01 6.495 3.01 6.495 2 7 C1.31068656 9.34907875 1.31068656 9.34907875 0.875 12.0625 C0.70742188 12.98160156 0.53984375 13.90070312 0.3671875 14.84765625 C0.24601563 15.55792969 0.12484375 16.26820313 0 17 C-0.99 17.33 -1.98 17.66 -3 18 C-2.88566637 15.74943278 -2.75813564 13.49953326 -2.625 11.25 C-2.55539062 9.99703125 -2.48578125 8.7440625 -2.4140625 7.453125 C-2.04676696 4.39001879 -1.60288714 2.58025734 0 0 Z " fill="#282289" transform="translate(648,536)"/>
<path d="M0 0 C4.29 0 8.58 0 13 0 C13 21.12 13 42.24 13 64 C12.67 64 12.34 64 12 64 C12 43.21 12 22.42 12 1 C8.7 1 5.4 1 2 1 C2 10.24 2 19.48 2 29 C1.01 28.67 0.02 28.34 -1 28 C-0.67 18.76 -0.34 9.52 0 0 Z " fill="#6267AB" transform="translate(781,442)"/>
<path d="M0 0 C0 0.33 0 0.66 0 1 C-1.794375 1.0928125 -1.794375 1.0928125 -3.625 1.1875 C-8.29568688 1.78270258 -10.72051702 3.56798293 -14 7 C-17.06057043 11.94024417 -17.45253339 15.86997325 -17.4765625 21.50390625 C-17.49214203 22.30481186 -17.50772156 23.10571747 -17.52377319 23.93089294 C-17.57104099 26.47475251 -17.59896295 29.01834238 -17.625 31.5625 C-17.66161706 34.11003565 -17.70234696 36.65742285 -17.74765015 39.20481873 C-17.77464862 40.78518454 -17.79609697 42.36565788 -17.81118774 43.94618225 C-17.86529417 47.74772956 -18.08939977 51.30234201 -19 55 C-19.33 55 -19.66 55 -20 55 C-20.12719457 48.7197034 -20.2145156 42.43974119 -20.2746582 36.15844727 C-20.29974031 34.02355537 -20.33381445 31.88874882 -20.37719727 29.75415039 C-20.43812582 26.67833353 -20.46627324 23.6036558 -20.48828125 20.52734375 C-20.51408768 19.57915268 -20.5398941 18.63096161 -20.56648254 17.65403748 C-20.56922529 11.11477064 -19.37307424 7.90581403 -15 3 C-10.13077111 -0.43059308 -5.72910611 -0.34374637 0 0 Z " fill="#322167" transform="translate(673,441)"/>
<path d="M0 0 C3.96 0 7.92 0 12 0 C12 0.99 12 1.98 12 3 C9.03 3 6.06 3 3 3 C3 4.32 3 5.64 3 7 C5.31 7 7.62 7 10 7 C9.67 7.99 9.34 8.98 9 10 C6.36 10 3.72 10 1 10 C1 11.32 1 12.64 1 14 C3.64 14 6.28 14 9 14 C9 14.99 9 15.98 9 17 C5.37 17 1.74 17 -2 17 C-2.22018299 10.94496767 -1.47039847 5.88159387 0 0 Z " fill="#484DC5" transform="translate(688,537)"/>
<path d="M0 0 C3.96 0 7.92 0 12 0 C12 0.66 12 1.32 12 2 C9.36 2.33 6.72 2.66 4 3 C3.67 4.32 3.34 5.64 3 7 C5.64 7 8.28 7 11 7 C11 7.99 11 8.98 11 10 C8.03 10 5.06 10 2 10 C2 11.32 2 12.64 2 14 C4.64 14 7.28 14 10 14 C10 14.99 10 15.98 10 17 C6.04 17 2.08 17 -2 17 C-1 5.28571429 -1 5.28571429 0 0 Z " fill="#3A363D" transform="translate(411,537)"/>
<path d="M0 0 C3.96 0 7.92 0 12 0 C12 0.66 12 1.32 12 2 C9.03 2 6.06 2 3 2 C3 3.65 3 5.3 3 7 C5.31 7 7.62 7 10 7 C10 7.99 10 8.98 10 10 C7.36 10.33 4.72 10.66 2 11 C1.67 11.99 1.34 12.98 1 14 C3.64 14 6.28 14 9 14 C9 14.99 9 15.98 9 17 C5.37 17 1.74 17 -2 17 C-2.19202183 10.85530145 -1.71648994 5.90043417 0 0 Z " fill="#47496C" transform="translate(516,537)"/>
<path d="M0 0 C0.99 0 1.98 0 3 0 C2.85786703 1.89611434 2.71113093 3.79188394 2.5625 5.6875 C2.48128906 6.74324219 2.40007813 7.79898438 2.31640625 8.88671875 C2.03548319 11.65086297 1.59843148 14.28945741 1 17 C-4.75 17.125 -4.75 17.125 -7 16 C-7.59355614 13.35139573 -7.74209269 10.70802678 -8 8 C-7.01 7.67 -6.02 7.34 -5 7 C-5 5.02 -5 3.04 -5 1 C-4.67 1 -4.34 1 -4 1 C-4 2.65 -4 4.3 -4 6 C-2.68 5.67 -1.36 5.34 0 5 C0 3.35 0 1.7 0 0 Z " fill="#E8E6ED" transform="translate(550,537)"/>
<path d="M0 0 C2.8125 0.9375 2.8125 0.9375 5.8125 2.9375 C5.8125 3.9275 5.8125 4.9175 5.8125 5.9375 C5.255625 5.793125 4.69875 5.64875 4.125 5.5 C3.361875 5.314375 2.59875 5.12875 1.8125 4.9375 C0.94625 4.710625 0.08 4.48375 -0.8125 4.25 C-1.59625 4.146875 -2.38 4.04375 -3.1875 3.9375 C-5.58513185 6.33513185 -5.53030586 7.27023498 -5.8125 10.5625 C-5.88726563 11.37976563 -5.96203125 12.19703125 -6.0390625 13.0390625 C-6.08804688 13.66554688 -6.13703125 14.29203125 -6.1875 14.9375 C-2.83316891 13.98816101 0.50496505 13.04001165 3.8125 11.9375 C3.5 13.8125 3.5 13.8125 2.8125 15.9375 C-0.67874017 18.26499345 -2.07972251 18.44049316 -6.1875 17.9375 C-8.625 16.5 -8.625 16.5 -10.1875 13.9375 C-10.6201646 10.00685215 -10.27826562 6.50128372 -7.98046875 3.20703125 C-5.34291599 0.72258181 -3.61352399 -0.07085341 0 0 Z " fill="#3C40A1" transform="translate(614.1875,536.0625)"/>
<path d="M0 0 C0.33 0 0.66 0 1 0 C2.55418353 5.11966339 3.13122459 8.56483093 2.2265625 13.9296875 C1.81918837 17.65224418 2.52962171 21.30417059 3 25 C3.58991847 31.48910318 1.61912658 36.1888129 -1 42 C-2.65 42 -4.3 42 -6 42 C-4.68 41.34 -3.36 40.68 -2 40 C-1.96241577 38.23571655 -1.96241577 38.23571655 -1.92407227 36.43579102 C-1.83017194 32.08785378 -1.72990952 27.74008284 -1.62768555 23.39233398 C-1.58427067 21.50760782 -1.54260057 19.62284064 -1.50268555 17.73803711 C-1.44514107 15.03486751 -1.38140196 12.33190564 -1.31640625 9.62890625 C-1.29133751 8.35703209 -1.29133751 8.35703209 -1.26576233 7.0594635 C-1.11387171 1.11387171 -1.11387171 1.11387171 0 0 Z " fill="#423488" transform="translate(708,453)"/>
<path d="M0 0 C0.33 0 0.66 0 1 0 C1 3.63 1 7.26 1 11 C4.96 11 8.92 11 13 11 C13 15.29 13 19.58 13 24 C9.04 24 5.08 24 1 24 C1 23.67 1 23.34 1 23 C3.31 23 5.62 23 8 23 C7.7525 21.576875 7.7525 21.576875 7.5 20.125 C7 17 7 17 7 15 C6.21625 15.04125 5.4325 15.0825 4.625 15.125 C2 15 2 15 0 13 C-0.1953125 9.9609375 -0.1953125 9.9609375 -0.125 6.375 C-0.10695313 5.18648438 -0.08890625 3.99796875 -0.0703125 2.7734375 C-0.04710937 1.85820312 -0.02390625 0.94296875 0 0 Z " fill="#4D4B85" transform="translate(618,455)"/>
<path d="M0 0 C0.66 0.33 1.32 0.66 2 1 C2 2.32 2 3.64 2 5 C1.01 4.67 0.02 4.34 -1 4 C-3.33299825 3.96045766 -5.66708189 3.95598268 -8 4 C-9.4783226 6.95664519 -9.06032783 9.74229737 -9 13 C-6.58354218 13.16687448 -6.58354218 13.16687448 -4 13 C-3.34 12.34 -2.68 11.68 -2 11 C-1.01 11 -0.02 11 1 11 C0.6875 12.875 0.6875 12.875 0 15 C-3.48868651 17.32579101 -4.89718519 17.41865457 -9 17 C-11.375 16.0625 -11.375 16.0625 -13 14 C-13.84251889 9.53808875 -13.49023966 6.04442363 -11.5625 1.9375 C-7.86473532 -0.85837086 -4.49235451 -0.60707493 0 0 Z " fill="#363AD7" transform="translate(716,537)"/>
<path d="M0 0 C2.35273229 0.74598829 4.40852265 1.61584592 6.5625 2.8125 C6.8925 2.1525 7.2225 1.4925 7.5625 0.8125 C7.5625 1.8025 7.5625 2.7925 7.5625 3.8125 C6.9025 4.4725 6.2425 5.1325 5.5625 5.8125 C5.39562552 8.39604218 5.39562552 8.39604218 5.5625 10.8125 C5.2325 10.1525 4.9025 9.4925 4.5625 8.8125 C4.02625 9.3075 3.49 9.8025 2.9375 10.3125 C-0.03108445 12.18739544 -1.99062427 12.04751425 -5.4375 11.8125 C-5.51881463 10.37594146 -5.57683559 8.9380517 -5.625 7.5 C-5.65980469 6.69949219 -5.69460938 5.89898438 -5.73046875 5.07421875 C-5.4375 2.8125 -5.4375 2.8125 -4.078125 1.0078125 C-2.4375 -0.1875 -2.4375 -0.1875 0 0 Z " fill="#F1EFF9" transform="translate(613.4375,539.1875)"/>
<path d="M0 0 C4.34586828 -0.39507893 6.32003497 -0.45331002 10 2 C10.33 1.34 10.66 0.68 11 0 C11.33 0.99 11.66 1.98 12 3 C11.01 3 10.02 3 9 3 C9.103125 3.763125 9.20625 4.52625 9.3125 5.3125 C9 8 9 8 6.8125 9.8125 C3.91025489 11.03789238 2.10891479 11.34543498 -1 11 C-2 10 -2 10 -2.1875 6.625 C-2 3 -2 3 0 0 Z " fill="#F2F0F8" transform="translate(708,540)"/>
<path d="M0 0 C1 1 1 1 1.3125 3.75 C0.92618131 7.76771435 -0.04600398 9.28551717 -3 12 C-5.75 12.3125 -5.75 12.3125 -8 12 C-9.595925 8.80815 -9.50915455 5.4650796 -9 2 C-6.2054374 -1.41557651 -4.04959511 -1.3133822 0 0 Z " fill="#EEEBF5" transform="translate(637,540)"/>
<path d="M0 0 C2 3 2 3 1.8125 6.5 C1 10 1 10 -0.25 12 C-2 13 -2 13 -4.625 12.75 C-7 12 -7 12 -8 11 C-8.46554364 3.78407351 -8.46554364 3.78407351 -6.8125 1 C-4.35051898 -0.35833436 -2.76589638 -0.42552252 0 0 Z " fill="#F1F0F2" transform="translate(479,539)"/>
<path d="M0 0 C0.99 0 1.98 0 3 0 C4.20568053 4.67201205 4.09382426 9.21496292 4 14 C6.72675159 11.59310197 8.11966596 9.07528977 9.6875 5.8125 C10.12449219 4.91144531 10.56148437 4.01039063 11.01171875 3.08203125 C11.33785156 2.39496094 11.66398438 1.70789063 12 1 C12.99 1 13.98 1 15 1 C14.30015022 4.80313103 12.63061126 7.83101773 10.75 11.1875 C10.16734375 12.25355469 9.5846875 13.31960938 8.984375 14.41796875 C7 17 7 17 4.265625 17.86328125 C3.51796875 17.90839844 2.7703125 17.95351563 2 18 C0.77100654 11.93184478 -0.27560214 6.20104812 0 0 Z " fill="#4D3DDB" transform="translate(750,536)"/>
<path d="M0 0 C0 0.66 0 1.32 0 2 C1.32 2.66 2.64 3.32 4 4 C3.29875 4.556875 2.5975 5.11375 1.875 5.6875 C-1.11344261 8.09124732 -4.05940238 10.53810432 -7 13 C-7 11.68 -7 10.36 -7 9 C-7.721875 9.495 -8.44375 9.99 -9.1875 10.5 C-12.14848659 12.07919285 -13.71253029 12.28178312 -17 12 C-16.34 11.505 -15.68 11.01 -15 10.5 C-11.70907674 7.75756395 -8.8647709 4.75622664 -5.96484375 1.609375 C-4 0 -4 0 0 0 Z " fill="#209ABE" transform="translate(251,513)"/>
<path d="M0 0 C5 1 5 1 6 2 C6.09932392 4.31074168 6.12969618 6.62462942 6.125 8.9375 C6.12757813 10.20464844 6.13015625 11.47179687 6.1328125 12.77734375 C6 16 6 16 5 18 C3.35 18 1.7 18 0 18 C0 12.06 0 6.12 0 0 Z " fill="#F8F9F7" transform="translate(582,476)"/>
<path d="M0 0 C2.55696106 2.55696106 2.53252019 4.11463323 3.0703125 7.6640625 C3.33134766 9.34628906 3.33134766 9.34628906 3.59765625 11.0625 C3.85869141 12.8259375 3.85869141 12.8259375 4.125 14.625 C4.30675781 15.80835938 4.48851562 16.99171875 4.67578125 18.2109375 C5.12452625 21.13958909 5.56559556 24.06919273 6 27 C4.02 27.33 2.04 27.66 0 28 C0 18.76 0 9.52 0 0 Z " fill="#DAE2E8" transform="translate(737,478)"/>
<path d="M0 0 C3.84177074 0.30329769 6.09427672 1.52475424 9 4 C8.67 4.66 8.34 5.32 8 6 C5.69 6 3.38 6 1 6 C1 6.99 1 7.98 1 9 C1.99 9 2.98 9 4 9 C4 9.99 4 10.98 4 12 C1.69 12 -0.62 12 -3 12 C-4.15703519 7.95037684 -3.92492885 5.74854566 -2 2 C-1.34 1.34 -0.68 0.68 0 0 Z " fill="#E2E1F0" transform="translate(585,539)"/>
<path d="M0 0 C4.95 0 9.9 0 15 0 C15 0.99 15 1.98 15 3 C13.02 3 11.04 3 9 3 C9.04125 3.825 9.0825 4.65 9.125 5.5 C8.97786007 9.61991815 8.09476605 13.03147307 7 17 C6.01 17 5.02 17 4 17 C4.33 12.38 4.66 7.76 5 3 C3.35 2.67 1.7 2.34 0 2 C0 1.34 0 0.68 0 0 Z " fill="#2D24D0" transform="translate(723,537)"/>
<path d="M0 0 C3.86799136 0.809964 6.10255771 2.26352673 9 5 C9 5.99 9 6.98 9 8 C8.34 8 7.68 8 7 8 C7 8.66 7 9.32 7 10 C6.34 10 5.68 10 5 10 C5.33 10.495 5.66 10.99 6 11.5 C7.43636358 15.09090894 7.12851462 18.14456127 7 22 C6.34 22 5.68 22 5 22 C4.96261719 21.39671875 4.92523438 20.7934375 4.88671875 20.171875 C4.62500948 15.26533097 4.62500948 15.26533097 2.5 11 C0.06984595 7.7597946 0.24501404 3.95401968 0 0 Z " fill="#1C8FBE" transform="translate(283,518)"/>
<path d="M0 0 C4.95 0 9.9 0 15 0 C14.67 0.99 14.34 1.98 14 3 C12.35 3.33 10.7 3.66 9 4 C8.89042969 4.77085937 8.78085937 5.54171875 8.66796875 6.3359375 C8.50941406 7.33882812 8.35085938 8.34171875 8.1875 9.375 C7.96126953 10.87160156 7.96126953 10.87160156 7.73046875 12.3984375 C7 15 7 15 4 17 C4.33 12.38 4.66 7.76 5 3 C3.35 3 1.7 3 0 3 C0 2.01 0 1.02 0 0 Z " fill="#5356EC" transform="translate(777,537)"/>
<path d="M0 0 C0.99 0 1.98 0 3 0 C3.66 1.98 4.32 3.96 5 6 C5.66 6 6.32 6 7 6 C7.474375 5.195625 7.94875 4.39125 8.4375 3.5625 C10 1 10 1 13 0 C11.94890403 2.97810526 10.78766025 5.31187401 9 7.9375 C7.04340721 10.93353271 5.97805606 13.57680379 5 17 C4.34 17 3.68 17 3 17 C2.86722656 16.19175781 2.73445312 15.38351562 2.59765625 14.55078125 C2.42105469 13.48214844 2.24445312 12.41351562 2.0625 11.3125 C1.88847656 10.25675781 1.71445312 9.20101562 1.53515625 8.11328125 C1.06832879 5.39750396 0.55577384 2.69875765 0 0 Z " fill="#4C4DEE" transform="translate(795,537)"/>
<path d="M0 0 C1.98 0.495 1.98 0.495 4 1 C3.9278125 2.16917969 3.855625 3.33835937 3.78125 4.54296875 C3.68742137 6.09114107 3.59367575 7.63931842 3.5 9.1875 C3.45230469 9.95642578 3.40460938 10.72535156 3.35546875 11.51757812 C3.16869301 14.62606016 2.99663727 17.69735387 3.03125 20.8125 C2.98493193 24.05476511 1.9646816 26.92507741 1 30 C0.34 29.67 -0.32 29.34 -1 29 C-0.67 19.43 -0.34 9.86 0 0 Z " fill="#28A2B6" transform="translate(261,484)"/>
<path d="M0 0 C1.25541557 3.76624671 0.37061958 5.37188934 -1 9 C-1.66 9 -2.32 9 -3 9 C-2.67 23.85 -2.34 38.7 -2 54 C-4.42418766 51.57581234 -4.25867964 50.96515719 -4.29052734 47.64550781 C-4.30328705 46.74407043 -4.31604675 45.84263306 -4.32919312 44.91387939 C-4.33141876 43.93683044 -4.33364441 42.95978149 -4.3359375 41.953125 C-4.3459227 40.44718781 -4.3459227 40.44718781 -4.35610962 38.91082764 C-4.36624987 36.7823673 -4.37092622 34.65387509 -4.37060547 32.52539062 C-4.37496404 29.27680503 -4.41122931 26.0295937 -4.44921875 22.78125 C-4.45508961 20.71354631 -4.4590572 18.64583617 -4.4609375 16.578125 C-4.47530853 15.60917297 -4.48967957 14.64022095 -4.50448608 13.64190674 C-4.46500749 7.77749437 -3.81192633 4.52294454 0 0 Z " fill="#4342A2" transform="translate(834,445)"/>
<path d="M0 0 C2.31 0 4.62 0 7 0 C7.125 6.75 7.125 6.75 6 9 C4.20906809 9.08086147 2.41710372 9.13912702 0.625 9.1875 C-0.87160156 9.23970703 -0.87160156 9.23970703 -2.3984375 9.29296875 C-3.25695312 9.19628906 -4.11546875 9.09960938 -5 9 C-5.66 8.01 -6.32 7.02 -7 6 C-3.30581799 4.768606 -0.7943739 5.35567236 3 6 C3 5.01 3 4.02 3 3 C2.01 3 1.02 3 0 3 C0 2.01 0 1.02 0 0 Z " fill="#23177D" transform="translate(586,545)"/>
<path d="M0 0 C2.5 0.125 2.5 0.125 3.5 1.125 C3.57258946 3.31139453 3.58373783 5.50000389 3.5625 7.6875 C3.55347656 8.88503906 3.54445313 10.08257812 3.53515625 11.31640625 C3.52355469 12.24324219 3.51195312 13.17007812 3.5 14.125 C3.17 14.125 2.84 14.125 2.5 14.125 C2.45101562 13.41472656 2.40203125 12.70445312 2.3515625 11.97265625 C2.27679687 11.05355469 2.20203125 10.13445312 2.125 9.1875 C2.02058594 7.81271484 2.02058594 7.81271484 1.9140625 6.41015625 C1.77742187 5.65605469 1.64078125 4.90195312 1.5 4.125 C0.84 3.795 0.18 3.465 -0.5 3.125 C-2.05495698 6.23491396 -1.74076956 9.55844049 -1.81640625 12.9765625 C-1.83718735 13.75059418 -1.85796844 14.52462585 -1.87937927 15.32211304 C-1.94483448 17.79798392 -2.00374087 20.27396202 -2.0625 22.75 C-2.10568907 24.42709448 -2.14930348 26.10417807 -2.19335938 27.78125 C-2.30051171 31.89572308 -2.40179045 36.01030414 -2.5 40.125 C-2.83 40.125 -3.16 40.125 -3.5 40.125 C-3.52464775 34.58911467 -3.54283496 29.053261 -3.55493164 23.51733398 C-3.55997244 21.6325627 -3.56680498 19.74779535 -3.57543945 17.86303711 C-3.58751617 15.15998364 -3.59323068 12.45698169 -3.59765625 9.75390625 C-3.60281754 8.90599014 -3.60797882 8.05807404 -3.61329651 7.1844635 C-3.61349195 5.16428932 -3.56206211 3.14422066 -3.5 1.125 C-2.5 0.125 -2.5 0.125 0 0 Z " fill="#8183A8" transform="translate(668.5,452.875)"/>
<path d="M0 0 C0.33 0 0.66 0 1 0 C1 8.25 1 16.5 1 25 C0.34 25 -0.32 25 -1 25 C-1.99 18.07 -2.98 11.14 -4 4 C-2.68 3.67 -1.36 3.34 0 3 C0 2.01 0 1.02 0 0 Z " fill="#DDE2E3" transform="translate(743,442)"/>
<path d="M0 0 C3.3 0 6.6 0 10 0 C10 0.33 10 0.66 10 1 C9.05125 1.12375 8.1025 1.2475 7.125 1.375 C3.91332809 1.71687177 3.91332809 1.71687177 2 4 C1.87497679 6.45167471 1.8661536 8.80220522 1.9375 11.25 C2.05291348 18.53948361 1.85578737 25.78099474 1.5 33.0625 C1.45222412 34.04444336 1.40444824 35.02638672 1.35522461 36.03808594 C1.23992645 38.35889978 1.12173878 40.67951641 1 43 C0.67 43 0.34 43 0 43 C0 28.81 0 14.62 0 0 Z " fill="#14122E" transform="translate(514,442)"/>
<path d="M0 0 C1.65 0 3.3 0 5 0 C5 4.29 5 8.58 5 13 C3.35 13.33 1.7 13.66 0 14 C0 9.38 0 4.76 0 0 Z " fill="#ECEDEA" transform="translate(582,452)"/>
<path d="M0 0 C3.45831586 -0.02894547 6.91660072 -0.04678 10.375 -0.0625 C11.35984375 -0.07087891 12.3446875 -0.07925781 13.359375 -0.08789062 C14.77089844 -0.09272461 14.77089844 -0.09272461 16.2109375 -0.09765625 C17.51490479 -0.10551147 17.51490479 -0.10551147 18.84521484 -0.11352539 C21 0 21 0 23 1 C23 3.64 23 6.28 23 9 C21.35 9 19.7 9 18 9 C18.33 8.34 18.66 7.68 19 7 C18.34 6.67 17.68 6.34 17 6 C17 5.34 17 4.68 17 4 C17.66 4 18.32 4 19 4 C19 3.34 19 2.68 19 2 C18.04738281 2.01160156 17.09476563 2.02320313 16.11328125 2.03515625 C14.85902344 2.04417969 13.60476563 2.05320312 12.3125 2.0625 C11.07113281 2.07410156 9.82976563 2.08570313 8.55078125 2.09765625 C5.53764546 2.01478673 2.91724661 1.70839449 0 1 C0 0.67 0 0.34 0 0 Z " fill="#181F69" transform="translate(608,443)"/>
<path d="M0 0 C6.15234375 -0.09765625 6.15234375 -0.09765625 8 0 C9 1 9 1 9.0625 4.0625 C9.041875 5.031875 9.02125 6.00125 9 7 C8.01 7.495 8.01 7.495 7 8 C7 10.97 7 13.94 7 17 C6.01 17 5.02 17 4 17 C3.34 14.03 2.68 11.06 2 8 C2.99 7.34 3.98 6.68 5 6 C5 5.01 5 4.02 5 3 C3.35 2.67 1.7 2.34 0 2 C0 1.34 0 0.68 0 0 Z " fill="#1A1850" transform="translate(536,537)"/>
<path d="M0 0 C0.33 0 0.66 0 1 0 C1.33 9.24 1.66 18.48 2 28 C1.34 26.68 0.68 25.36 0 24 C-0.33 25.65 -0.66 27.3 -1 29 C-1.66 29 -2.32 29 -3 29 C-3.042721 27.33388095 -3.04063832 25.66617115 -3 24 C-2.67 23.67 -2.34 23.34 -2 23 C-1.97881062 21.58333861 -2.00997668 20.16584596 -2.0625 18.75 C-2.14559642 12.37927443 -1.0987395 6.25889107 0 0 Z " fill="#02A0BC" transform="translate(265,484)"/>
<path d="M0 0 C0.66 0.33 1.32 0.66 2 1 C2 7.93 2 14.86 2 22 C2.99 22 3.98 22 5 22 C5 20.35 5 18.7 5 17 C5.33 17 5.66 17 6 17 C6.33 13.04 6.66 9.08 7 5 C7.33 5 7.66 5 8 5 C8 10.94 8 16.88 8 23 C5.03 23.66 2.06 24.32 -1 25 C-0.505 23.515 -0.505 23.515 0 22 C0.08178114 20.29983156 0.10749501 18.59663703 0.09765625 16.89453125 C0.09443359 15.91162109 0.09121094 14.92871094 0.08789062 13.91601562 C0.07951172 12.89185547 0.07113281 11.86769531 0.0625 10.8125 C0.05798828 9.77673828 0.05347656 8.74097656 0.04882812 7.67382812 C0.0370401 5.11582734 0.02058515 2.55794267 0 0 Z " fill="#3A8FBE" transform="translate(260,527)"/>
<path d="M0 0 C0.99 1.485 0.99 1.485 2 3 C2.99 2.67 3.98 2.34 5 2 C4.34 9.59 3.68 17.18 3 25 C2.34 25 1.68 25 1 25 C0.67 16.75 0.34 8.5 0 0 Z " fill="#F5F5F5" transform="translate(423,458)"/>
<path d="M0 0 C0.66 0.33 1.32 0.66 2 1 C2.60107745 4.31726705 2.74433485 7.63374215 3 11 C-0.63 11 -4.26 11 -8 11 C-6.50260417 9.01432292 -5.00520833 7.02864583 -3.5078125 5.04296875 C-2.29185219 3.39543703 -1.13583859 1.70375789 0 0 Z " fill="#170948" transform="translate(560,495)"/>
<path d="M0 0 C1.67542976 0.28604898 3.34385343 0.61781233 5 1 C4.67 2.32 4.34 3.64 4 5 C3.34 5 2.68 5 2 5 C1.34 8.96 0.68 12.92 0 17 C-0.99 17 -1.98 17 -3 17 C-2.69268013 14.35346869 -2.37940678 11.707885 -2.0625 9.0625 C-1.97548828 8.30775391 -1.88847656 7.55300781 -1.79882812 6.77539062 C-1.11328125 1.11328125 -1.11328125 1.11328125 0 0 Z " fill="#3E33A0" transform="translate(668,537)"/>
<path d="M0 0 C1.32 0.33 2.64 0.66 4 1 C4 2.66666667 4 4.33333333 4 6 C3.01 6.495 3.01 6.495 2 7 C1.31068656 9.34907875 1.31068656 9.34907875 0.875 12.0625 C0.70742188 12.98160156 0.53984375 13.90070312 0.3671875 14.84765625 C0.24601563 15.55792969 0.12484375 16.26820313 0 17 C-0.99 17.33 -1.98 17.66 -3 18 C-2.88566637 15.74943278 -2.75813564 13.49953326 -2.625 11.25 C-2.55539062 9.99703125 -2.48578125 8.7440625 -2.4140625 7.453125 C-2.04676696 4.39001879 -1.60288714 2.58025734 0 0 Z " fill="#4A439E" transform="translate(648,536)"/>
<path d="M0 0 C3.96 0 7.92 0 12 0 C12 0.66 12 1.32 12 2 C9.36 2.33 6.72 2.66 4 3 C3.67 4.32 3.34 5.64 3 7 C5.31 7 7.62 7 10 7 C10 7.66 10 8.32 10 9 C6.7 9.33 3.4 9.66 0 10 C0 6.7 0 3.4 0 0 Z " fill="#1D1A1E" transform="translate(411,537)"/>
<path d="M0 0 C3.53564024 5.30346036 4.74278875 11.68629561 4 18 C2.68 18.99 1.36 19.98 0 21 C0 14.07 0 7.14 0 0 Z " fill="#E1EBE8" transform="translate(775,480)"/>
<path d="M0 0 C0 0.33 0 0.66 0 1 C-1.794375 1.0928125 -1.794375 1.0928125 -3.625 1.1875 C-8.29568688 1.78270258 -10.72051702 3.56798293 -14 7 C-15.86923203 10.14988873 -15.86923203 10.14988873 -17 13 C-17.33 13 -17.66 13 -18 13 C-18.33 14.98 -18.66 16.96 -19 19 C-19.33 19 -19.66 19 -20 19 C-20.49230564 14.17540473 -20.64981363 10.2650574 -17.875 6.125 C-12.84366698 0.06772477 -7.44025901 -0.44641554 0 0 Z " fill="#2B2867" transform="translate(673,441)"/>
<path d="M0 0 C1.65 0 3.3 0 5 0 C4.34 5.28 3.68 10.56 3 16 C2.01 16.33 1.02 16.66 0 17 C0.33 12.71 0.66 8.42 1 4 C0.34 3.67 -0.32 3.34 -1 3 C-0.67 2.01 -0.34 1.02 0 0 Z " fill="#161216" transform="translate(441,537)"/>
<path d="M0 0 C0.66 0 1.32 0 2 0 C1.7229061 3.45966438 1.42586237 6.91732798 1.125 10.375 C1.04636719 11.35984375 0.96773438 12.3446875 0.88671875 13.359375 C0.80292969 14.30039062 0.71914063 15.24140625 0.6328125 16.2109375 C0.55949707 17.08024902 0.48618164 17.94956055 0.41064453 18.84521484 C0 21 0 21 -2 23 C-2.99 23 -3.98 23 -5 23 C-5 21.68 -5 20.36 -5 19 C-4.34 19 -3.68 19 -3 19 C-3.061875 18.0925 -3.12375 17.185 -3.1875 16.25 C-3.22204204 10.66570424 -1.47354309 5.34159368 0 0 Z " fill="#067DB6" transform="translate(267,526)"/>
<path d="M0 0 C1.65 0.33 3.3 0.66 5 1 C5 13.87 5 26.74 5 40 C4.67 40 4.34 40 4 40 C4 27.79 4 15.58 4 3 C2.35 3.66 0.7 4.32 -1 5 C-0.67 3.35 -0.34 1.7 0 0 Z " fill="#CCCBD1" transform="translate(702,453)"/>
<path d="M0 0 C0.99 0.33 1.98 0.66 3 1 C3 1.66 3 2.32 3 3 C3.66 3 4.32 3 5 3 C5 8.94 5 14.88 5 21 C3.08755432 17.17510864 2.24055943 14.09480815 1.375 9.9375 C1.11460937 8.70902344 0.85421875 7.48054688 0.5859375 6.21484375 C0 3 0 3 0 0 Z " fill="#E7EEDD" transform="translate(776,444)"/>
<path d="M0 0 C0.99 0 1.98 0 3 0 C2.85786703 1.89611434 2.71113093 3.79188394 2.5625 5.6875 C2.48128906 6.74324219 2.40007813 7.79898438 2.31640625 8.88671875 C2.03548319 11.65086297 1.59843148 14.28945741 1 17 C0.01 17 -0.98 17 -2 17 C-1.03644647 5.47835991 -1.03644647 5.47835991 0 0 Z " fill="#32216B" transform="translate(550,537)"/>
<path d="M0 0 C0.99 0 1.98 0 3 0 C2.34 5.28 1.68 10.56 1 16 C0.01 16.33 -0.98 16.66 -2 17 C-2.21824777 10.9981863 -1.5056904 5.80766296 0 0 Z " fill="#4129C7" transform="translate(742,537)"/>
<path d="M0 0 C0.33 0 0.66 0 1 0 C1.05059881 6.22961977 1.08569062 12.4591868 1.10986328 18.68896484 C1.11993751 20.8094277 1.13359733 22.92987661 1.15087891 25.05029297 C1.17506489 28.09345943 1.18646869 31.13644266 1.1953125 34.1796875 C1.20563507 35.13181122 1.21595764 36.08393494 1.22659302 37.06491089 C1.22674408 37.94567291 1.22689514 38.82643494 1.22705078 39.73388672 C1.231492 40.51110077 1.23593323 41.28831482 1.24050903 42.08908081 C1 44 1 44 -1 46 C-1.33 44.68 -1.66 43.36 -2 42 C-1.34 42 -0.68 42 0 42 C0 28.14 0 14.28 0 0 Z " fill="#484089" transform="translate(719,451)"/>
<path d="M0 0 C0.99 0 1.98 0 3 0 C2.69075786 2.10464793 2.3774944 4.2087053 2.0625 6.3125 C1.88847656 7.48425781 1.71445312 8.65601563 1.53515625 9.86328125 C1 13 1 13 0 16 C-0.99 16 -1.98 16 -3 16 C-2.69262339 13.52009745 -2.37935917 11.04119265 -2.0625 8.5625 C-1.97548828 7.85544922 -1.88847656 7.14839844 -1.79882812 6.41992188 C-1.11328125 1.11328125 -1.11328125 1.11328125 0 0 Z " fill="#453BDF" transform="translate(770,537)"/>
<path d="M0 0 C0.99 0.33 1.98 0.66 3 1 C2.34 1 1.68 1 1 1 C1.0721875 1.58265625 1.144375 2.1653125 1.21875 2.765625 C3.33834586 21.4887218 3.33834586 21.4887218 0 29 C-0.66 29 -1.32 29 -2 29 C-2 27.68 -2 26.36 -2 25 C-1.34 25 -0.68 25 0 25 C0 16.75 0 8.5 0 0 Z " fill="#373388" transform="translate(744,442)"/>
<path d="M0 0 C2 2 2 2 3 4 C4.32 4 5.64 4 7 4 C7.66 3.01 8.32 2.02 9 1 C9.33 3.64 9.66 6.28 10 9 C3.375 9.125 3.375 9.125 0 8 C0 5.36 0 2.72 0 0 Z " fill="#2E23B6" transform="translate(764,496)"/>
<path d="M0 0 C0.99 0 1.98 0 3 0 C2.32599282 3.91114026 0.45743967 6.87119182 -1.5625 10.25 C-2.20316406 11.32765625 -2.84382812 12.4053125 -3.50390625 13.515625 C-4.24447266 14.74539063 -4.24447266 14.74539063 -5 16 C-6.32 15.67 -7.64 15.34 -9 15 C-8.01 14.67 -7.02 14.34 -6 14 C-5.08237695 12.06909039 -5.08237695 12.06909039 -4.5 9.75 C-3.39755604 6.14983143 -2.33678482 3.01834706 0 0 Z " fill="#2927D4" transform="translate(762,537)"/>
<path d="M0 0 C3.3 0.33 6.6 0.66 10 1 C8.02 1.99 8.02 1.99 6 3 C4.64837492 4.98768394 3.31306433 6.9866347 2 9 C1.34 9 0.68 9 0 9 C-0.33 9.99 -0.66 10.98 -1 12 C-1.07329796 7.60212211 -1.07396066 4.29584263 0 0 Z " fill="#1C1A49" transform="translate(544,442)"/>
<path d="M0 0 C0.33 0 0.66 0 1 0 C1 2.31 1 4.62 1 7 C4.35433109 6.05066101 7.69246505 5.10251165 11 4 C10.6875 5.875 10.6875 5.875 10 8 C6.53076119 10.31282587 5.07794425 10.42478586 1 10 C-0.875 8.5 -0.875 8.5 -2 7 C-1.34 4.69 -0.68 2.38 0 0 Z " fill="#3131A8" transform="translate(607,544)"/>
<path d="M0 0 C4.29 0 8.58 0 13 0 C12.01 0.33 11.02 0.66 10 1 C10 1.66 10 2.32 10 3 C9.21625 3.309375 8.4325 3.61875 7.625 3.9375 C5.07669872 4.92875038 5.07669872 4.92875038 3 6 C3 4.35 3 2.7 3 1 C2.34 1 1.68 1 1 1 C1 4.96 1 8.92 1 13 C0.67 13 0.34 13 0 13 C0 8.71 0 4.42 0 0 Z " fill="#514B92" transform="translate(671,478)"/>
<path d="M0 0 C0.66 0.33 1.32 0.66 2 1 C2 2.32 2 3.64 2 5 C4.64 5 7.28 5 10 5 C10 5.99 10 6.98 10 8 C6.37 8 2.74 8 -1 8 C-0.67 5.36 -0.34 2.72 0 0 Z " fill="#24255B" transform="translate(515,546)"/>
<path d="M0 0 C0.66 0.33 1.32 0.66 2 1 C2.21755666 6.4389165 2.10428384 10.87080814 0 16 C-0.66 16 -1.32 16 -2 16 C-1.85936865 13.70800823 -1.71234057 11.41640814 -1.5625 9.125 C-1.48128906 7.84882812 -1.40007813 6.57265625 -1.31640625 5.2578125 C-1 2 -1 2 0 0 Z " fill="#231A59" transform="translate(533,538)"/>
<path d="M0 0 C0.14525497 8.05358138 -0.28586721 15.97875848 -1 24 C-1.33 24 -1.66 24 -2 24 C-2.07347656 22.35451172 -2.07347656 22.35451172 -2.1484375 20.67578125 C-2.22350591 19.22133075 -2.29905197 17.76690484 -2.375 16.3125 C-2.4059375 15.59126953 -2.436875 14.87003906 -2.46875 14.12695312 C-2.69335587 10.02789606 -3.17740909 6.75631541 -5 3 C-1.125 0 -1.125 0 0 0 Z " fill="#E5E7F2" transform="translate(863,443)"/>
<path d="M0 0 C0.66 0 1.32 0 2 0 C2 1.32 2 2.64 2 4 C4.64 4 7.28 4 10 4 C10 4.99 10 5.98 10 7 C6.37 7 2.74 7 -1 7 C-0.67 4.69 -0.34 2.38 0 0 Z " fill="#3A36BD" transform="translate(687,547)"/>
<path d="M0 0 C2.4375 0.375 2.4375 0.375 5 1 C6.42662219 3.85324437 6.31033868 5.83454549 6 9 C4.125 11.875 4.125 11.875 2 14 C1.34 14 0.68 14 0 14 C0.33 13.29875 0.66 12.5975 1 11.875 C2.11142813 8.67964413 2.29224491 6.36081648 2 3 C1.34 2.01 0.68 1.02 0 0 Z " fill="#281995" transform="translate(635,538)"/>
<path d="M0 0 C2.33944736 0.28730055 4.6739143 0.61936779 7 1 C5.06692503 2.28871665 3.1095313 3.54202443 1.125 4.75 C-2.31964535 7.23014466 -4.41968827 9.66077305 -7 13 C-7.33 11.68 -7.66 10.36 -8 9 C-7.34 9 -6.68 9 -6 9 C-5.67 7.68 -5.34 6.36 -5 5 C-4.01 5 -3.02 5 -2 5 C-1.855625 4.360625 -1.71125 3.72125 -1.5625 3.0625 C-1 1 -1 1 0 0 Z " fill="#1FBEA7" transform="translate(248,443)"/>
<path d="M0 0 C1.32 0.66 2.64 1.32 4 2 C1.69 6.29 -0.62 10.58 -3 15 C-3.99 14.67 -4.98 14.34 -6 14 C-5.34 14 -4.68 14 -4 14 C-4.20625 13.38125 -4.4125 12.7625 -4.625 12.125 C-4.74875 11.42375 -4.8725 10.7225 -5 10 C-4.34 9.34 -3.68 8.68 -3 8 C-2.11221308 6.03511169 -2.11221308 6.03511169 -1.375 3.875 C-0.98441406 2.78832031 -0.98441406 2.78832031 -0.5859375 1.6796875 C-0.29589844 0.84824219 -0.29589844 0.84824219 0 0 Z " fill="#292830" transform="translate(439,539)"/>
<path d="M0 0 C0.33 0 0.66 0 1 0 C1 3.63 1 7.26 1 11 C0.01 11 -0.98 11 -2 11 C-3.33981486 11.3062434 -4.67511887 11.63451555 -6 12 C-5.38144369 10.3725363 -4.75492695 8.74809644 -4.125 7.125 C-3.77695312 6.22007812 -3.42890625 5.31515625 -3.0703125 4.3828125 C-2 2 -2 2 0 0 Z " fill="#C9C7D1" transform="translate(500,542)"/>
<path d="M0 0 C0 0.66 0 1.32 0 2 C-0.66 2 -1.32 2 -2 2 C-2.268125 2.639375 -2.53625 3.27875 -2.8125 3.9375 C-4 6 -4 6 -7 7 C-8.62719482 7.08143855 -10.25751719 7.1075302 -11.88671875 7.09765625 C-12.82451172 7.09443359 -13.76230469 7.09121094 -14.72851562 7.08789062 C-15.70498047 7.07951172 -16.68144531 7.07113281 -17.6875 7.0625 C-19.16959961 7.05573242 -19.16959961 7.05573242 -20.68164062 7.04882812 C-23.12115474 7.03704303 -25.56054689 7.02059011 -28 7 C-28 6.67 -28 6.34 -28 6 C-27.42556152 5.99589111 -26.85112305 5.99178223 -26.25927734 5.98754883 C-23.63017353 5.95444003 -21.00333471 5.88378307 -18.375 5.8125 C-17.47136719 5.80669922 -16.56773437 5.80089844 -15.63671875 5.79492188 C-9.32584092 5.58763027 -4.7481671 0 0 0 Z " fill="#2997A7" transform="translate(320,492)"/>
<path d="M0 0 C1.78789666 3.57579332 2.34287914 5.36277346 2.6875 9.1875 C2.77386719 10.06792969 2.86023438 10.94835937 2.94921875 11.85546875 C2.96597656 12.56316406 2.98273437 13.27085937 3 14 C2.67 14.33 2.34 14.66 2 15 C1.76924918 16.34747084 1.58846937 17.70377565 1.4375 19.0625 C1.293125 20.361875 1.14875 21.66125 1 23 C0.67 23 0.34 23 0 23 C0 15.41 0 7.82 0 0 Z " fill="#ABADB8" transform="translate(525,462)"/>
<path d="M0 0 C0.33 0 0.66 0 1 0 C1 3.96 1 7.92 1 12 C4.63 12 8.26 12 12 12 C7.89296961 14.73802026 5.93643175 15.21006093 1 15 C0 14 0 14 -0.09765625 10.83984375 C-0.08025391 8.90818359 -0.08025391 8.90818359 -0.0625 6.9375 C-0.05347656 5.64714844 -0.04445313 4.35679687 -0.03515625 3.02734375 C-0.02355469 2.02832031 -0.01195312 1.02929688 0 0 Z " fill="#7773C0" transform="translate(812,454)"/>
<path d="M0 0 C1.20269531 -0.00515625 2.40539062 -0.0103125 3.64453125 -0.015625 C7.15131355 0.24728701 9.91971185 0.98892402 13.1875 2.25 C13.1875 2.91 13.1875 3.57 13.1875 4.25 C5.5975 3.59 -1.9925 2.93 -9.8125 2.25 C-6.16813236 -0.17957843 -4.33322452 -0.01845889 0 0 Z " fill="#1CD1AD" transform="translate(268.8125,409.75)"/>
<path d="M0 0 C6.40703902 0.48355011 6.40703902 0.48355011 8.9375 2.6875 C10.27148038 5.59086906 10.21536552 7.84130576 10 11 C6.125 6.25 6.125 6.25 5 4 C3.35636866 3.27840576 1.68949614 2.60648579 0 2 C0 1.34 0 0.68 0 0 Z " fill="#28253F" transform="translate(474,536)"/>
<path d="M0 0 C3.96 0 7.92 0 12 0 C12 0.66 12 1.32 12 2 C9.03 2 6.06 2 3 2 C2.34 3.98 1.68 5.96 1 8 C0.67 8 0.34 8 0 8 C0 5.36 0 2.72 0 0 Z " fill="#131551" transform="translate(516,537)"/>
<path d="M0 0 C0.33 1.32 0.66 2.64 1 4 C0.01 4 -0.98 4 -2 4 C-2.0825 4.598125 -2.165 5.19625 -2.25 5.8125 C-3.24028397 8.70082825 -4.34936773 9.52742652 -7 11 C-9.75 11.1875 -9.75 11.1875 -12 11 C-11.319375 10.484375 -10.63875 9.96875 -9.9375 9.4375 C-6.39657527 6.49928587 -3.20890181 3.29212981 0 0 Z " fill="#359DBD" transform="translate(246,514)"/>
<path d="M0 0 C0.33 0 0.66 0 1 0 C0.67 3.96 0.34 7.92 0 12 C-0.99 12.33 -1.98 12.66 -3 13 C-3.66 12.34 -4.32 11.68 -5 11 C-3.35 7.37 -1.7 3.74 0 0 Z " fill="#CECDCD" transform="translate(441,542)"/>
<path d="M0 0 C2 3 2 3 1.7578125 5.26171875 C1.54898438 6.06222656 1.34015625 6.86273437 1.125 7.6875 C0.92132812 8.49574219 0.71765625 9.30398438 0.5078125 10.13671875 C0.25644531 11.05904297 0.25644531 11.05904297 0 12 C-0.99 11.67 -1.98 11.34 -3 11 C-3.36923077 4.6 -3.36923077 4.6 -1.5 1.5625 C-1.005 1.046875 -0.51 0.53125 0 0 Z " fill="#2B267E" transform="translate(581,539)"/>
<path d="M0 0 C0.66 0 1.32 0 2 0 C1.34 1.98 0.68 3.96 0 6 C2.31 6 4.62 6 7 6 C7 6.66 7 7.32 7 8 C3.04 8 -0.92 8 -5 8 C-5 7.34 -5 6.68 -5 6 C-4.01 5.34 -3.02 4.68 -2 4 C-0.80767387 1.94996045 -0.80767387 1.94996045 0 0 Z " fill="#4139C1" transform="translate(876,498)"/>
<path d="M0 0 C3.79588866 0.54226981 5.47211993 2.20127563 8 5 C7.34 5 6.68 5 6 5 C6 5.66 6 6.32 6 7 C4.35 7 2.7 7 1 7 C0.67 4.69 0.34 2.38 0 0 Z " fill="#1298C9" transform="translate(283,518)"/>
<path d="M0 0 C2.5419589 -0.05434116 5.08273682 -0.0938339 7.625 -0.125 C8.33785156 -0.14175781 9.05070312 -0.15851563 9.78515625 -0.17578125 C14.2612164 -0.21684602 17.77949278 0.30913433 22 2 C22 2.33 22 2.66 22 3 C14.37685526 3.23576736 7.41430591 2.83717315 0 1 C0 0.67 0 0.34 0 0 Z " fill="#47D6B2" transform="translate(258,399)"/>
<path d="M0 0 C0.66 0 1.32 0 2 0 C2.33 2.64 2.66 5.28 3 8 C1.02 8.99 1.02 8.99 -1 10 C-2.15837626 5.94568308 -1.83691257 3.78187881 0 0 Z " fill="#DFDFEE" transform="translate(650,542)"/>
<path d="M0 0 C1.25541557 3.76624671 0.37061958 5.37188934 -1 9 C-1.66 9 -2.32 9 -3 9 C-3 11.64 -3 14.28 -3 17 C-3.33 17 -3.66 17 -4 17 C-4.44534366 10.04769059 -4.67289916 5.40303965 0 0 Z " fill="#574EB2" transform="translate(834,445)"/>
<path d="M0 0 C3.3 0 6.6 0 10 0 C10 0.33 10 0.66 10 1 C9.05125 1.12375 8.1025 1.2475 7.125 1.375 C3.91332809 1.71687177 3.91332809 1.71687177 2 4 C1.75639927 7.12814514 1.75639927 7.12814514 1.875 10.625 C1.89304687 11.81351562 1.91109375 13.00203125 1.9296875 14.2265625 C1.95289063 15.14179688 1.97609375 16.05703125 2 17 C1.67 17 1.34 17 1 17 C0.16514796 11.26039225 -0.09063407 5.80058027 0 0 Z " fill="#0C0A29" transform="translate(514,442)"/>
<path d="M0 0 C1.65 0.33 3.3 0.66 5 1 C5.125 3.375 5.125 3.375 5 6 C3 8 3 8 1.0546875 8.1953125 C-0.96354167 8.13020833 -2.98177083 8.06510417 -5 8 C-5 7.67 -5 7.34 -5 7 C-1.535 6.505 -1.535 6.505 2 6 C1.34 4.02 0.68 2.04 0 0 Z " fill="#0B0814" transform="translate(459,538)"/>
<path d="M0 0 C-1.36983503 3.16115776 -1.9890638 3.9927092 -5 6 C-5.99 6 -6.98 6 -8 6 C-8.33 5.01 -8.66 4.02 -9 3 C-5.92807025 0.26939578 -4.09590633 -0.34132553 0 0 Z " fill="#3C3495" transform="translate(716,500)"/>
<path d="M0 0 C0.33 0 0.66 0 1 0 C1 5.28 1 10.56 1 16 C0.01 16 -0.98 16 -2 16 C-1.85890014 13.89551062 -1.71195825 11.7914123 -1.5625 9.6875 C-1.48128906 8.51574219 -1.40007813 7.34398437 -1.31640625 6.13671875 C-1 3 -1 3 0 0 Z " fill="#CED0D9" transform="translate(551,464)"/>
<path d="M0 0 C0.33 0 0.66 0 1 0 C1 3.96 1 7.92 1 12 C4.63 12 8.26 12 12 12 C12 12.33 12 12.66 12 13 C10.37828761 13.38897161 8.75245075 13.76078298 7.125 14.125 C6.22007812 14.33382813 5.31515625 14.54265625 4.3828125 14.7578125 C3.59648438 14.83773438 2.81015625 14.91765625 2 15 C0 13 0 13 -0.1953125 9.9609375 C-0.17210937 8.77757812 -0.14890625 7.59421875 -0.125 6.375 C-0.10695313 5.18648438 -0.08890625 3.99796875 -0.0703125 2.7734375 C-0.04710937 1.85820312 -0.02390625 0.94296875 0 0 Z " fill="#474977" transform="translate(618,455)"/>
<path d="M0 0 C2.00720923 0.28674418 4.0085944 0.61866701 6 1 C5.42765625 1.26554687 4.8553125 1.53109375 4.265625 1.8046875 C1.8923988 3.05676891 -0.12213286 4.4936352 -2.25 6.125 C-2.95640625 6.66382813 -3.6628125 7.20265625 -4.390625 7.7578125 C-4.92171875 8.16773438 -5.4528125 8.57765625 -6 9 C-6 6 -6 6 -3.5625 3.375 C-2.716875 2.59125 -1.87125 1.8075 -1 1 C-0.67 0.67 -0.34 0.34 0 0 Z " fill="#383C80" transform="translate(696,442)"/>
<path d="M0 0 C0 0.66 0 1.32 0 2 C0.99 2.33 1.98 2.66 3 3 C1.20906809 3.08086147 -0.58289628 3.13912702 -2.375 3.1875 C-3.87160156 3.23970703 -3.87160156 3.23970703 -5.3984375 3.29296875 C-6.25695312 3.19628906 -7.11546875 3.09960938 -8 3 C-8.66 2.01 -9.32 1.02 -10 0 C-6.7169902 -1.6415049 -3.57454967 -0.51888624 0 0 Z " fill="#404091" transform="translate(589,551)"/>
<path d="M0 0 C0.99 0 1.98 0 3 0 C2.67 4.29 2.34 8.58 2 13 C1.67 13 1.34 13 1 13 C1 11.35 1 9.7 1 8 C0.34 8 -0.32 8 -1 8 C-0.67 5.36 -0.34 2.72 0 0 Z " fill="#3B3873" transform="translate(571,537)"/>
<path d="M0 0 C1.67542976 0.28604898 3.34385343 0.61781233 5 1 C5 2.32 5 3.64 5 5 C2.69 5 0.38 5 -2 5 C-1.125 1.125 -1.125 1.125 0 0 Z " fill="#DBDCDF" transform="translate(456,539)"/>
<path d="M0 0 C0.66 0.33 1.32 0.66 2 1 C0.625 3.5 0.625 3.5 -1 6 C-1.66 6 -2.32 6 -3 6 C-3 8.97 -3 11.94 -3 15 C-5 13 -5 13 -5.375 10.25 C-4.88343956 5.98980951 -3.03528308 3.03528308 0 0 Z " fill="#43ACBD" transform="translate(197,491)"/>
<path d="M0 0 C0.66 0.33 1.32 0.66 2 1 C1.67 5.29 1.34 9.58 1 14 C0.34 14 -0.32 14 -1 14 C-1.02685938 11.85423363 -1.04633088 9.70837355 -1.0625 7.5625 C-1.07410156 6.36753906 -1.08570313 5.17257812 -1.09765625 3.94140625 C-1 1 -1 1 0 0 Z " fill="#B1B1B3" transform="translate(425,469)"/>
<path d="M0 0 C1.66611905 -0.042721 3.33382885 -0.04063832 5 0 C6 1 6 1 6.09765625 3.94140625 C6.08605469 5.13636719 6.07445312 6.33132813 6.0625 7.5625 C6.05347656 8.76003906 6.04445313 9.95757812 6.03515625 11.19140625 C6.02355469 12.11824219 6.01195312 13.04507812 6 14 C5.67 14 5.34 14 5 14 C4.95101562 13.28972656 4.90203125 12.57945312 4.8515625 11.84765625 C4.77679687 10.92855469 4.70203125 10.00945312 4.625 9.0625 C4.52058594 7.68771484 4.52058594 7.68771484 4.4140625 6.28515625 C4.27742187 5.53105469 4.14078125 4.77695312 4 4 C3.34 3.67 2.68 3.34 2 3 C1.67 3.66 1.34 4.32 1 5 C0.67 3.35 0.34 1.7 0 0 Z " fill="#BEB8C4" transform="translate(666,453)"/>
<path d="M0 0 C1.27617187 0.02320313 2.55234375 0.04640625 3.8671875 0.0703125 C5.78917969 0.09738281 5.78917969 0.09738281 7.75 0.125 C9.23113281 0.15980469 9.23113281 0.15980469 10.7421875 0.1953125 C10.7421875 0.5253125 10.7421875 0.8553125 10.7421875 1.1953125 C6.4521875 1.1953125 2.1621875 1.1953125 -2.2578125 1.1953125 C-2.2578125 3.1753125 -2.2578125 5.1553125 -2.2578125 7.1953125 C-3.2478125 7.6903125 -3.2478125 7.6903125 -4.2578125 8.1953125 C-4.8828125 5.3203125 -4.8828125 5.3203125 -5.2578125 2.1953125 C-3.2578125 0.1953125 -3.2578125 0.1953125 0 0 Z " fill="#E3E3E3" transform="translate(447.2578125,440.8046875)"/>
<path d="M0 0 C0.33 0 0.66 0 1 0 C0.39174965 4.34464536 -0.26167392 8.67551867 -1 13 C-1.99 13 -2.98 13 -4 13 C-3.67 9.37 -3.34 5.74 -3 2 C-2.34 2.66 -1.68 3.32 -1 4 C-0.67 2.68 -0.34 1.36 0 0 Z " fill="#4F33E2" transform="translate(731,541)"/>
<path d="M0 0 C0.33 0 0.66 0 1 0 C0.9131252 1.95917659 0.80495488 3.91741871 0.6875 5.875 C0.62949219 6.96554687 0.57148437 8.05609375 0.51171875 9.1796875 C0.34285156 10.11039063 0.17398438 11.04109375 0 12 C-0.99 12.66 -1.98 13.32 -3 14 C-2.88512252 12.41590006 -2.75765492 10.83271037 -2.625 9.25 C-2.55539062 8.36828125 -2.48578125 7.4865625 -2.4140625 6.578125 C-2.00149945 4.00933618 -1.28839043 2.24158985 0 0 Z " fill="#3125DF" transform="translate(784,540)"/>
<path d="M0 0 C0.33 0 0.66 0 1 0 C1.33 4.29 1.66 8.58 2 13 C1.01 13 0.02 13 -1 13 C-1.02696365 11.20841511 -1.04637917 9.41671527 -1.0625 7.625 C-1.07410156 6.62726562 -1.08570313 5.62953125 -1.09765625 4.6015625 C-1 2 -1 2 0 0 Z " fill="#090709" transform="translate(433,540)"/>
<path d="M0 0 C1.32 0.66 2.64 1.32 4 2 C2.7934375 3.0828125 2.7934375 3.0828125 1.5625 4.1875 C-1.02292072 7.02515689 -1.68042813 8.27166147 -2 12 C-2.33 12 -2.66 12 -3 12 C-4.05699482 6.71502591 -4.05699482 6.71502591 -4 4 C-2.0625 1.5 -2.0625 1.5 0 0 Z " fill="#15132E" transform="translate(472,537)"/>
<path d="M0 0 C1.98 0 3.96 0 6 0 C5.67 0.66 5.34 1.32 5 2 C4.01 2 3.02 2 2 2 C2.309375 2.7734375 2.309375 2.7734375 2.625 3.5625 C3.15887026 7.03265671 2.07676761 9.70635791 1 13 C0.67 13 0.34 13 0 13 C0 8.71 0 4.42 0 0 Z " fill="#4138C6" transform="translate(849,479)"/>
<path d="M0 0 C0.33 0 0.66 0 1 0 C1.02691685 2.45840605 1.04679802 4.91651882 1.0625 7.375 C1.07087891 8.07367188 1.07925781 8.77234375 1.08789062 9.4921875 C1.11328125 14.7734375 1.11328125 14.7734375 0 17 C-0.66 17 -1.32 17 -2 17 C-1.34 11.39 -0.68 5.78 0 0 Z " fill="#322F47" transform="translate(542,454)"/>
<path d="M0 0 C0.99 0.33 1.98 0.66 3 1 C4.29676812 5.61073111 3.71109139 9.33840089 3 14 C2.34 14 1.68 14 1 14 C0.67 9.38 0.34 4.76 0 0 Z " fill="#6057B6" transform="translate(847,453)"/>
<path d="M0 0 C0.33 0.66 0.66 1.32 1 2 C1.99 2 2.98 2 4 2 C4 2.66 4 3.32 4 4 C0.7 4 -2.6 4 -6 4 C-6 3.01 -6 2.02 -6 1 C-4.02 0.67 -2.04 0.34 0 0 Z " fill="#4235D7" transform="translate(856,463)"/>
<path d="M0 0 C2.33294775 -0.04241723 4.66702567 -0.04092937 7 0 C8 1 8 1 8.09765625 2.84765625 C8.04882812 5.92382812 8.04882812 5.92382812 8 9 C7.01 8.67 6.02 8.34 5 8 C5.33 5.69 5.66 3.38 6 1 C4.02 1.99 4.02 1.99 2 3 C1.34 2.01 0.68 1.02 0 0 Z " fill="#352FDC" transform="translate(882,443)"/>
<path d="M0 0 C4.29 0 8.58 0 13 0 C13 1.32 13 2.64 13 4 C12.34 4 11.68 4 11 4 C10.67 3.34 10.34 2.68 10 2 C8.10466658 1.53476937 8.10466658 1.53476937 5.9375 1.375 C4.638125 1.25125 3.33875 1.1275 2 1 C2 2.98 2 4.96 2 7 C0.5393715 4.35261084 0 3.10551666 0 0 Z " fill="#252383" transform="translate(725,442)"/>
<path d="M0 0 C0.66 0 1.32 0 2 0 C2.33 0.99 2.66 1.98 3 3 C3.99 3.33 4.98 3.66 6 4 C6 4.99 6 5.98 6 7 C4.02 7 2.04 7 0 7 C0 4.69 0 2.38 0 0 Z " fill="#FAFEEB" transform="translate(583,544)"/>
<path d="M0 0 C0.66 0 1.32 0 2 0 C2.33 1.98 2.66 3.96 3 6 C2.01 6 1.02 6 0 6 C0 7.65 0 9.3 0 11 C-0.66 11 -1.32 11 -2 11 C-1.85892253 9.54119891 -1.71197585 8.08296449 -1.5625 6.625 C-1.48128906 5.81289063 -1.40007813 5.00078125 -1.31640625 4.1640625 C-1 2 -1 2 0 0 Z " fill="#DDDBEE" transform="translate(670,542)"/>
<path d="M0 0 C3.63 0 7.26 0 11 0 C11 0.66 11 1.32 11 2 C10.28972656 2.04898438 9.57945312 2.09796875 8.84765625 2.1484375 C7.46900391 2.26058594 7.46900391 2.26058594 6.0625 2.375 C5.14597656 2.44460938 4.22945313 2.51421875 3.28515625 2.5859375 C2.53105469 2.72257813 1.77695312 2.85921875 1 3 C0.67 3.66 0.34 4.32 0 5 C0 3.35 0 1.7 0 0 Z " fill="#0B0914" transform="translate(412,537)"/>
<path d="M0 0 C1.31223496 3.93670488 0.24296256 6.12488144 -1 10 C-1.66 9.67 -2.32 9.34 -3 9 C-3.36923077 3.46153846 -3.36923077 3.46153846 -1.5 1.125 C-1.005 0.75375 -0.51 0.3825 0 0 Z " fill="#1D0C8C" transform="translate(607,541)"/>
<path d="M0 0 C1.65 0 3.3 0 5 0 C5.33 0.66 5.66 1.32 6 2 C5.0625 4.125 5.0625 4.125 4 6 C3.01 5.67 2.02 5.34 1 5 C0.67 3.35 0.34 1.7 0 0 Z " fill="#DBD9F3" transform="translate(798,538)"/>
<path d="M0 0 C6.27 0 12.54 0 19 0 C18.01 0.495 18.01 0.495 17 1 C17 1.66 17 2.32 17 3 C16.01 3 15.02 3 14 3 C14 2.34 14 1.68 14 1 C9.38 1 4.76 1 0 1 C0 0.67 0 0.34 0 0 Z " fill="#CECCFF" transform="translate(778,536)"/>
<path d="M0 0 C0.99 0 1.98 0 3 0 C3 3.3 3 6.6 3 10 C2.01 10.33 1.02 10.66 0 11 C0 7.37 0 3.74 0 0 Z " fill="#2F2951" transform="translate(587,453)"/>
<path d="M0 0 C1.485 0.99 1.485 0.99 3 2 C2.67 4.64 2.34 7.28 2 10 C1.01 10 0.02 10 -1 10 C-0.67 6.7 -0.34 3.4 0 0 Z " fill="#4C2FE5" transform="translate(768,543)"/>
<path d="M0 0 C1.65 0 3.3 0 5 0 C4.67 2.31 4.34 4.62 4 7 C3.34 6.67 2.68 6.34 2 6 C2 5.01 2 4.02 2 3 C1.01 3 0.02 3 -1 3 C-0.67 2.01 -0.34 1.02 0 0 Z " fill="#09070D" transform="translate(441,537)"/>
<path d="M0 0 C2.33944736 0.28730055 4.6739143 0.61936779 7 1 C7 1.66 7 2.32 7 3 C7.66 3.33 8.32 3.66 9 4 C2.47692308 4.36923077 2.47692308 4.36923077 0.0625 2.5 C-0.4634375 1.7575 -0.4634375 1.7575 -1 1 C-0.67 0.67 -0.34 0.34 0 0 Z " fill="#349BD2" transform="translate(294,544)"/>
<path d="M0 0 C0.99 0 1.98 0 3 0 C2.38722388 2.96175123 1.74627478 4.38058783 0 7 C-0.99 7 -1.98 7 -3 7 C-1.125 1.125 -1.125 1.125 0 0 Z " fill="#4843E1" transform="translate(762,537)"/>
<path d="M0 0 C0.99 0 1.98 0 3 0 C3.1875 2.8125 3.1875 2.8125 3 6 C2.01 6.99 1.02 7.98 0 9 C0 6.03 0 3.06 0 0 Z " fill="#1D1752" transform="translate(550,537)"/>
<path d="M0 0 C1.98 0 3.96 0 6 0 C5.67 1.32 5.34 2.64 5 4 C3.35 4 1.7 4 0 4 C0 2.68 0 1.36 0 0 Z " fill="#F8F6F7" transform="translate(536,540)"/>
<path d="M0 0 C2.64 0 5.28 0 8 0 C8 0.99 8 1.98 8 3 C5.69 3 3.38 3 1 3 C0.67 2.01 0.34 1.02 0 0 Z " fill="#22202A" transform="translate(413,551)"/>
<path d="M0 0 C2.31 0.33 4.62 0.66 7 1 C7.33 2.32 7.66 3.64 8 5 C4.20411134 4.45773019 2.52788007 2.79872437 0 0 Z " fill="#271F95" transform="translate(612,537)"/>
<path d="M0 0 C0.33 0.66 0.66 1.32 1 2 C1.99 2 2.98 2 4 2 C4 3.32 4 4.64 4 6 C2.35 6 0.7 6 -1 6 C-0.67 4.02 -0.34 2.04 0 0 Z " fill="#EEF1EE" transform="translate(667,488)"/>
<path d="M0 0 C3 3 3 3 3.29296875 5.04296875 C3.1953125 7.02864583 3.09765625 9.01432292 3 11 C2.34 11 1.68 11 1 11 C0.67 7.37 0.34 3.74 0 0 Z " fill="#CBCAD2" transform="translate(537,467)"/>
<path d="M0 0 C2.97 0.495 2.97 0.495 6 1 C4.68 1.33 3.36 1.66 2 2 C2 6.29 2 10.58 2 15 C1.67 15 1.34 15 1 15 C0.67 10.05 0.34 5.1 0 0 Z " fill="#423F64" transform="translate(580,450)"/>
<path d="M0 0 C0.66 0 1.32 0 2 0 C1.75 1.875 1.75 1.875 1 4 C-1.0625 5.25 -1.0625 5.25 -3 6 C-3 5.34 -3 4.68 -3 4 C-4.32 3.67 -5.64 3.34 -7 3 C-5.5459375 2.5359375 -5.5459375 2.5359375 -4.0625 2.0625 C-1.15934208 1.30476658 -1.15934208 1.30476658 0 0 Z " fill="#3D42A4" transform="translate(616,548)"/>
<path d="M0 0 C2.15973378 3.23960066 2.75921963 5.14751405 3 9 C2.01 9.99 1.02 10.98 0 12 C0 8.04 0 4.08 0 0 Z " fill="#BEC7E5" transform="translate(775,480)"/>
<path d="M0 0 C0.99 0 1.98 0 3 0 C2.6875 1.9375 2.6875 1.9375 2 4 C-1.28976808 5.09658936 -2.71303767 4.79953138 -6 4 C-5.38125 3.71125 -4.7625 3.4225 -4.125 3.125 C-1.86674235 2.06279958 -1.86674235 2.06279958 0 0 Z " fill="#584ED3" transform="translate(714,548)"/>
<path d="M0 0 C0.66 0.33 1.32 0.66 2 1 C2 3.31 2 5.62 2 8 C1.01 8 0.02 8 -1 8 C-0.67 5.36 -0.34 2.72 0 0 Z " fill="#120C36" transform="translate(515,546)"/>
<path d="M0 0 C0.33 0.99 0.66 1.98 1 3 C-0.4375 5.6875 -0.4375 5.6875 -2 8 C-2.99 7.67 -3.98 7.34 -5 7 C-4.34 7 -3.68 7 -3 7 C-3.33 5.68 -3.66 4.36 -4 3 C-2.68 2.01 -1.36 1.02 0 0 Z " fill="#201B21" transform="translate(438,546)"/>
<path d="M0 0 C0.33 0.99 0.66 1.98 1 3 C-1.70879335 4.35439668 -4.00933268 4.06501451 -7 4 C-7.33 3.01 -7.66 2.02 -8 1 C-6.865625 1.020625 -5.73125 1.04125 -4.5625 1.0625 C-1.18424326 1.41577477 -1.18424326 1.41577477 0 0 Z " fill="#14A4A8" transform="translate(233,473)"/>
<path d="M0 0 C1.98 0.495 1.98 0.495 4 1 C3.2884375 1.804375 3.2884375 1.804375 2.5625 2.625 C0.71813924 5.42842836 0.37543153 7.69620258 0 11 C-0.33 11 -0.66 11 -1 11 C-1.0270043 9.54176788 -1.04639787 8.08339325 -1.0625 6.625 C-1.07410156 5.81289063 -1.08570313 5.00078125 -1.09765625 4.1640625 C-1 2 -1 2 0 0 Z " fill="#453D75" transform="translate(654,449)"/>
<path d="M0 0 C0.33 0.99 0.66 1.98 1 3 C1.66 3 2.32 3 3 3 C2.34 4.65 1.68 6.3 1 8 C0.34 8 -0.32 8 -1 8 C-0.67 5.36 -0.34 2.72 0 0 Z " fill="#DFD4F3" transform="translate(755,542)"/>
<path d="M0 0 C2.475 0.495 2.475 0.495 5 1 C4.67 2.32 4.34 3.64 4 5 C3.34 5 2.68 5 2 5 C1.67 5.66 1.34 6.32 1 7 C1.020625 6.21625 1.04125 5.4325 1.0625 4.625 C1.18684063 2.01885039 1.18684063 2.01885039 0 0 Z " fill="#3433A9" transform="translate(668,537)"/>
<path d="M0 0 C2.31 0 4.62 0 7 0 C7 0.99 7 1.98 7 3 C5.02 3 3.04 3 1 3 C0.67 2.01 0.34 1.02 0 0 Z " fill="#5354E4" transform="translate(731,537)"/>
<path d="M0 0 C3.875 4.75 3.875 4.75 5 7 C4.01 7.33 3.02 7.66 2 8 C0 6 0 6 -0.125 2.875 C-0.08375 1.92625 -0.0425 0.9775 0 0 Z " fill="#39A7CD" transform="translate(280,511)"/>
<path d="M0 0 C0.99 0.33 1.98 0.66 3 1 C3 2.98 3 4.96 3 7 C2.01 7 1.02 7 0 7 C0 4.69 0 2.38 0 0 Z " fill="#422ED8" transform="translate(872,497)"/>
<path d="M0 0 C-2.97 1.65 -5.94 3.3 -9 5 C-8 1 -8 1 -6.1875 -0.3125 C-4 -1 -4 -1 0 0 Z " fill="#20CEAB" transform="translate(240,417)"/>
<path d="M0 0 C0.66 0.33 1.32 0.66 2 1 C2 2.98 2 4.96 2 7 C1.01 7.33 0.02 7.66 -1 8 C-0.67 5.36 -0.34 2.72 0 0 Z " fill="#2D1A8A" transform="translate(646,546)"/>
<path d="M0 0 C3.375 -0.125 3.375 -0.125 7 0 C7.66 0.66 8.32 1.32 9 2 C6.04335481 3.4783226 3.25770263 3.06032783 0 3 C0 2.01 0 1.02 0 0 Z " fill="#2028A9" transform="translate(628,551)"/>
<path d="M0 0 C0.66 0.33 1.32 0.66 2 1 C1.67 3.64 1.34 6.28 1 9 C0.34 9 -0.32 9 -1 9 C-0.67 6.03 -0.34 3.06 0 0 Z " fill="#1D1DE7" transform="translate(799,545)"/>
<path d="M0 0 C2 2 2 2 2.125 5.125 C2.08375 6.07375 2.0425 7.0225 2 8 C1.01 7.67 0.02 7.34 -1 7 C-0.67 4.69 -0.34 2.38 0 0 Z " fill="#D5D5D3" transform="translate(430,543)"/>
<path d="M0 0 C0.99 0.495 0.99 0.495 2 1 C2.40729228 3.32156597 2.74438677 5.6568787 3 8 C2.01 8.495 2.01 8.495 1 9 C0.67 6.03 0.34 3.06 0 0 Z " fill="#181439" transform="translate(564,540)"/>
<path d="M0 0 C0.66 0 1.32 0 2 0 C0.125 4.75 0.125 4.75 -1 7 C-1.66 7 -2.32 7 -3 7 C-2.25 2.25 -2.25 2.25 0 0 Z " fill="#4242E4" transform="translate(806,537)"/>
<path d="M0 0 C1.98 0.495 1.98 0.495 4 1 C4 2.32 4 3.64 4 5 C2.0625 4.625 2.0625 4.625 0 4 C-0.33 3.34 -0.66 2.68 -1 2 C-0.67 1.34 -0.34 0.68 0 0 Z " fill="#2C2B7B" transform="translate(590,537)"/>
<path d="M0 0 C0.66 0.33 1.32 0.66 2 1 C-1.44615385 5.8 -1.44615385 5.8 -4.25 6.8125 C-5.11625 6.9053125 -5.11625 6.9053125 -6 7 C-4.19587357 3.73539027 -3.16605307 2.11070205 0 0 Z " fill="#3DA2B7" transform="translate(276,505)"/>
<path d="M0 0 C1.32 0 2.64 0 4 0 C4 1.32 4 2.64 4 4 C2.68 4.33 1.36 4.66 0 5 C0 3.35 0 1.7 0 0 Z " fill="#FBFCEC" transform="translate(582,452)"/>
<path d="M0 0 C0.33 0 0.66 0 1 0 C1 2.64 1 5.28 1 8 C-0.65 8 -2.3 8 -4 8 C-3.34 7.67 -2.68 7.34 -2 7 C-2 6.01 -2 5.02 -2 4 C-1.34 4 -0.68 4 0 4 C0 2.68 0 1.36 0 0 Z " fill="#252778" transform="translate(630,444)"/>
<path d="M0 0 C0.79921875 0.01804687 1.5984375 0.03609375 2.421875 0.0546875 C3.02515625 0.07789063 3.6284375 0.10109375 4.25 0.125 C4.25 0.455 4.25 0.785 4.25 1.125 C1.27148438 1.41796875 1.27148438 1.41796875 -1.70703125 1.7109375 C-4.04988142 2.05165391 -4.04988142 2.05165391 -6.75 4.125 C-7.41 3.465 -8.07 2.805 -8.75 2.125 C-5.68753253 0.34090198 -3.52920727 -0.10380021 0 0 Z " fill="#444376" transform="translate(668.75,440.875)"/>
<path d="M0 0 C2.31 0 4.62 0 7 0 C6.01 0.66 5.02 1.32 4 2 C3.27617533 4.05925139 3.27617533 4.05925139 3 6 C3 5.01 3 4.02 3 3 C2.01 3 1.02 3 0 3 C0 2.01 0 1.02 0 0 Z " fill="#5F5B9A" transform="translate(586,545)"/>
<path d="M0 0 C0.66 0.33 1.32 0.66 2 1 C1.67 3.31 1.34 5.62 1 8 C0.34 8 -0.32 8 -1 8 C-0.67 5.36 -0.34 2.72 0 0 Z " fill="#0D071A" transform="translate(481,543)"/>
<path d="M0 0 C0.99 0 1.98 0 3 0 C2.67 2.31 2.34 4.62 2 7 C1.34 7 0.68 7 0 7 C0 4.69 0 2.38 0 0 Z " fill="#242293" transform="translate(679,537)"/>
<path d="M0 0 C0.66 0.33 1.32 0.66 2 1 C1.34 2.98 0.68 4.96 0 7 C-0.99 7 -1.98 7 -3 7 C-1.125 2.25 -1.125 2.25 0 0 Z " fill="#0F96C2" transform="translate(279,510)"/>
<path d="M0 0 C0 0.66 0 1.32 0 2 C-0.66 2 -1.32 2 -2 2 C-2.66 3.32 -3.32 4.64 -4 6 C-4.99 5.67 -5.98 5.34 -7 5 C-2.25 0 -2.25 0 0 0 Z " fill="#33A8BA" transform="translate(320,492)"/>
<path d="M0 0 C1.65 0 3.3 0 5 0 C4.67 1.32 4.34 2.64 4 4 C2.68 3.67 1.36 3.34 0 3 C0 2.01 0 1.02 0 0 Z " fill="#F4F9F1" transform="translate(459,477)"/>
<path d="M0 0 C2.64 0 5.28 0 8 0 C8 1.65 8 3.3 8 5 C7.34 5 6.68 5 6 5 C5.67 4.01 5.34 3.02 5 2 C3.35 1.67 1.7 1.34 0 1 C0 0.67 0 0.34 0 0 Z " fill="#0F0E2F" transform="translate(525,442)"/>
</svg>
